<svg width="68" height="68" viewBox="0 0 68 68" fill="none" xmlns="http://www.w3.org/2000/svg">
<path d="M11.1037 55.7752L4.99947 46.7253L12.1875 41.877L22.4903 57.1515L15.3023 61.9999L13.7911 59.7595" stroke="#1D3A44" stroke-width="2"/>
<path d="M20.8594 55.4247L23.3454 53.7674C23.8312 53.4435 24.4342 53.3481 24.9963 53.5062L38.1637 57.2095C40.2533 57.7973 42.4949 57.4559 44.3149 56.2729L60.2561 45.9112C61.8256 44.891 62.2369 42.7731 61.1635 41.2396V41.2396C60.1425 39.781 58.1503 39.3919 56.6554 40.3591L50.1217 44.5868" stroke="#1D3A44" stroke-width="2"/>
<path d="M13.2734 44.0446L23.1522 38.2072C24.4545 37.4376 26.0191 37.2472 27.468 37.6819L43.4475 42.4757C45.3212 43.0378 46.3593 45.0377 45.7407 46.8936V46.8936C45.1587 48.6395 43.3142 49.6266 41.5387 49.1424L32.7817 46.7541" stroke="#1D3A44" stroke-width="2"/>
<path d="M49.7039 28.436L48.6359 29.9999H50.5297H52.4337H52.9617L53.2595 29.5638L55.3555 26.4944C55.4024 27.079 55.5431 27.6308 55.7953 28.1351L55.7952 28.1351L55.7994 28.1434C56.1128 28.7558 56.5609 29.2542 57.1416 29.6115L57.1543 29.6193L57.1672 29.6268C57.7581 29.9665 58.4125 30.1279 59.1057 30.1279C59.8121 30.1279 60.4781 29.9701 61.0697 29.6212L61.0778 29.6165L61.0858 29.6115C61.6665 29.2542 62.1146 28.7558 62.4279 28.1434L62.428 28.1434L62.4321 28.1351C62.7487 27.5019 62.8897 26.7938 62.8897 26.0399C62.8897 25.2868 62.749 24.5799 62.4279 23.9524C62.1146 23.3399 61.6665 22.8416 61.0858 22.4842C60.4916 22.1186 59.8197 21.9519 59.1057 21.9519C58.8716 21.9519 58.642 21.9709 58.418 22.0095L60.9075 18.3638L61.9754 16.7999H60.0817H58.1777H57.6496L57.3519 17.236L55.2558 20.3055C55.2088 19.7219 55.0676 19.172 54.8119 18.6724L53.9217 19.1279L54.8119 18.6724C54.4986 18.0599 54.0505 17.5616 53.4698 17.2042L52.9457 18.0559L53.4698 17.2042C52.8787 16.8405 52.2131 16.6719 51.5057 16.6719C50.7983 16.6719 50.1327 16.8405 49.5416 17.2042C48.965 17.559 48.5151 18.052 48.1919 18.6562L48.1876 18.6643L48.1834 18.6724C47.8624 19.2999 47.7217 20.0067 47.7217 20.7599C47.7217 21.5138 47.8626 22.2219 48.1793 22.8551L48.1854 22.8674L48.1919 22.8795C48.5151 23.4838 48.965 23.9767 49.5416 24.3315L49.5496 24.3365L49.5577 24.3412C50.1463 24.6884 50.8061 24.8479 51.5057 24.8479C51.7389 24.8479 51.9678 24.8301 52.191 24.7936L49.7039 28.436ZM51.5399 20.0131L51.545 20.0202L51.5501 20.0271C51.5757 20.0617 51.6737 20.247 51.6737 20.7599C51.6737 21.2502 51.5842 21.4553 51.5442 21.5164C51.5372 21.5253 51.5318 21.5312 51.5282 21.5348C51.5233 21.5353 51.5159 21.5359 51.5057 21.5359C51.5036 21.5359 51.5018 21.5358 51.5003 21.5358C51.4999 21.5354 51.4995 21.5351 51.4991 21.5347C51.4926 21.529 51.4813 21.5179 51.466 21.4987C51.4242 21.4341 51.3377 21.2317 51.3377 20.7599C51.3377 20.2545 51.4328 20.0672 51.4601 20.0287C51.4783 20.0048 51.4918 19.9915 51.4991 19.985C51.4995 19.9847 51.4999 19.9843 51.5003 19.984C51.5018 19.9839 51.5036 19.9839 51.5057 19.9839C51.51 19.9839 51.5136 19.984 51.5166 19.9842C51.5219 19.9898 51.5299 19.999 51.5399 20.0131ZM59.2737 26.0399C59.2737 26.5302 59.1842 26.7353 59.1442 26.7964C59.1372 26.8053 59.1318 26.8112 59.1282 26.8148C59.1233 26.8153 59.1159 26.8159 59.1057 26.8159C59.0982 26.8159 59.0931 26.8155 59.09 26.8151L59.0893 26.8151C59.0883 26.8143 59.087 26.8132 59.0855 26.8119C59.0806 26.8078 59.0726 26.8003 59.062 26.7881C59.0199 26.7179 58.9377 26.51 58.9377 26.0399C58.9377 25.5345 59.0328 25.3472 59.0601 25.3087C59.0783 25.2848 59.0918 25.2715 59.0991 25.265C59.0995 25.2647 59.0999 25.2643 59.1003 25.264C59.1018 25.2639 59.1036 25.2639 59.1057 25.2639C59.11 25.2639 59.1136 25.264 59.1166 25.2642C59.1219 25.2698 59.1299 25.279 59.1399 25.2931C59.1791 25.348 59.2737 25.5467 59.2737 26.0399Z" stroke="#B71923" stroke-width="2"/>
<path d="M33.0679 29.0756L33.0679 29.0756L33.0736 29.0792C34.3129 29.8561 35.6987 30.24 37.2048 30.24C38.7243 30.24 40.1133 29.8573 41.3417 29.0756C42.5759 28.2902 43.5252 27.1612 44.2029 25.7355C44.9068 24.2724 45.2368 22.5486 45.2368 20.6C45.2368 18.6539 44.9077 16.9375 44.203 15.4885C43.5264 14.0492 42.5778 12.911 41.3417 12.1243C40.1133 11.3426 38.7243 10.96 37.2048 10.96C35.6987 10.96 34.3129 11.3438 33.0736 12.1207L33.0736 12.1207L33.0679 12.1243C31.8304 12.9118 30.8811 14.0516 30.2045 15.4931C29.5175 16.9405 29.1968 18.6551 29.1968 20.6C29.1968 22.5464 29.518 24.2675 30.2035 25.7287L30.2034 25.7287L30.2055 25.733C30.8833 27.1599 31.833 28.2898 33.0679 29.0756ZM39.6546 23.5793L39.6517 23.5867L39.649 23.5942C39.3774 24.3411 39.0294 24.8129 38.6519 25.0986C38.2654 25.3754 37.7976 25.528 37.2048 25.528C36.6557 25.528 36.1901 25.3817 35.7766 25.0948C35.3975 24.8061 35.0434 24.3315 34.7579 23.5868C34.4926 22.8536 34.3408 21.8695 34.3408 20.6C34.3408 19.3102 34.4937 18.3288 34.7568 17.6159C35.0452 16.8626 35.4009 16.4003 35.7743 16.1306L35.7743 16.1306L35.7782 16.1278C36.1944 15.8241 36.6587 15.672 37.2048 15.672C37.7928 15.672 38.2575 15.8295 38.6448 16.12L38.652 16.1254L38.6593 16.1306C39.0285 16.3973 39.376 16.855 39.649 17.6057L39.6528 17.6161L39.6568 17.6264C39.932 18.3342 40.0928 19.3112 40.0928 20.6C40.0928 21.8699 39.9328 22.8506 39.6546 23.5793Z" stroke="#B71923" stroke-width="2"/>
<path d="M22.7444 29.0002V30.0002H23.7444H26.8644H27.8644V29.0002V12.2002V11.2002H26.8644H20.1924H19.1924V12.2002V14.8162V15.8162H20.1924H22.7444V29.0002Z" stroke="#B71923" stroke-width="2"/>
</svg>
