<svg width="166" height="40" viewBox="0 0 166 40" fill="none" xmlns="http://www.w3.org/2000/svg">
<g clip-path="url(#clip0_2026_1585)">
<path fill-rule="evenodd" clip-rule="evenodd" d="M10.2569 0.799805H29.3989C34.688 0.799805 38.9772 5.08901 38.9627 10.3636V29.5056C38.9627 34.7802 34.688 39.0694 29.3989 39.0694H10.2569C4.98232 39.0694 0.693115 34.7947 0.693115 29.5056V10.3636C0.693115 5.08901 4.98232 0.799805 10.2569 0.799805ZM16.618 17.6234H23.1098C26.4426 17.6234 29.1379 20.3187 29.1379 23.6515C29.1379 25.3179 28.4568 26.8249 27.37 27.9117C26.2832 28.9985 24.7762 29.6796 23.1098 29.6796H11.0537V10.2043H28.8191L26.9643 15.2035H16.618V17.6234ZM21.8346 25.4773C22.3418 25.4773 22.8055 25.2744 23.1388 24.9411C23.4721 24.6079 23.6749 24.1587 23.6894 23.6515C23.6894 22.6371 22.8635 21.8112 21.8491 21.8112H16.6035V25.4773H21.8346Z" fill="white"/>
<path d="M59.1773 18.1009H54.0187V16.1881H62.2348L63.7128 12.2178H49.6135V27.6792H59.1773C60.4959 27.6792 61.6987 27.143 62.5536 26.2736C63.423 25.4041 63.9592 24.2159 63.9592 22.8828C63.9737 20.231 61.8291 18.1009 59.1773 18.1009ZM59.2063 23.9116C58.9454 24.1724 58.5832 24.3318 58.1775 24.3318H54.0331V21.4192H58.1775C58.9744 21.4192 59.6265 22.0713 59.6265 22.8683C59.641 23.2885 59.4671 23.6508 59.2063 23.9116ZM147.236 12.2033V27.6647H142.817V21.8685H137.513V27.6647H133.094V12.2033H137.513V17.9415H142.817V12.2033H147.236ZM109.691 18.1009H104.533V16.1881H112.749L114.227 12.2178H100.128V27.6792H109.691C111.01 27.6792 112.213 27.143 113.082 26.2736C113.952 25.4041 114.488 24.2159 114.488 22.8828C114.473 20.231 112.329 18.1009 109.691 18.1009ZM109.72 23.9116C109.46 24.1724 109.097 24.3318 108.692 24.3318H104.547V21.4192H108.692C109.489 21.4192 110.141 22.0713 110.141 22.8683C110.141 23.2885 109.981 23.6508 109.72 23.9116ZM74.7981 12.2033H66.1762V27.6647H70.5959V22.7814H74.8126C76.2762 22.7814 77.5948 22.1872 78.5512 21.2309C79.5076 20.2745 80.1017 18.9558 80.1017 17.4923C80.0872 14.5652 77.7252 12.2033 74.7981 12.2033ZM75.2908 18.6081C75.001 18.8979 74.6098 19.0718 74.175 19.0718H70.5814V15.9273H74.175C75.0445 15.9273 75.74 16.6229 75.74 17.4923C75.7545 17.927 75.5806 18.3183 75.2908 18.6081ZM89.6944 11.7686C85.1879 11.7686 81.5217 15.4346 81.5217 19.9412C81.5217 24.4478 85.1879 28.1139 89.6944 28.1139C94.2155 28.1139 97.8671 24.4478 97.8671 19.9412C97.8671 15.4201 94.201 11.7686 89.6944 11.7686ZM89.6944 23.7957C87.5643 23.7957 85.8254 22.0713 85.8254 19.9267C85.8254 17.7966 87.5498 16.0577 89.6944 16.0577C91.8245 16.0577 93.5634 17.7821 93.5634 19.9267C93.5489 22.0713 91.8245 23.7957 89.6944 23.7957ZM158.771 19.9412L165.219 27.6647H160.075L155.177 21.796V27.6792H150.758V12.2033H155.177V18.0719L160.075 12.2033H165.219L158.771 19.9412ZM125.472 12.2033H120.936L115.082 27.6647H119.617L120.414 25.5635H125.993L126.79 27.6647H131.326L125.472 12.2033ZM121.748 22.0278L123.197 18.2023L124.646 22.0278H121.748Z" fill="white"/>
</g>
<defs>
<clipPath id="clip0_2026_1585">
<rect width="165.6" height="38.4" fill="white" transform="translate(0.199951 0.799805)"/>
</clipPath>
</defs>
</svg>
