<svg width="198" height="48" viewBox="0 0 198 48" fill="none" xmlns="http://www.w3.org/2000/svg">
<g clip-path="url(#clip0_2026_1540)">
<path d="M18.8651 24.0215H0.173828V25.5671H18.8651V24.0215Z" fill="white"/>
<path d="M18.8651 19.3486H1.70508V20.8943H18.8651V19.3486Z" fill="white"/>
<path d="M22.0355 21.6641H3.27954V23.2097H22.0355V21.6641Z" fill="white"/>
<path d="M38.9582 19.3496V19.86H36.744L39.8353 24.9498L43.5448 19.86H41.1077V19.3496H46.2334V19.86H44.199L40.2019 25.4171L45.9099 34.432H47.398V34.9424H38.1243V34.432H40.6333L37.0388 28.8031L33.0058 34.432H35.8023V34.9424H29.8786V34.432H32.3157L36.7153 28.3286L31.302 19.86H29.4473V19.3496H38.9582Z" fill="white"/>
<path d="M49.3677 19.8372V19.3268H56.1253V22.0155H56.1972C56.9448 19.8876 58.3754 18.8164 60.4818 18.8164C61.8836 18.8164 63.0842 19.0896 64.0762 19.6359C65.0683 20.1823 65.8879 20.8653 66.5277 21.692C67.1675 22.5187 67.642 23.4101 67.9439 24.3806C68.2458 25.3512 68.3968 26.257 68.3968 27.1053C68.3968 28.198 68.2027 29.2404 67.8145 30.2324C67.4263 31.2245 66.8871 32.1016 66.197 32.8636C65.5068 33.6256 64.6729 34.2367 63.7096 34.6968C62.7391 35.1569 61.6608 35.3869 60.4746 35.3869C59.3603 35.3869 58.4617 35.085 57.7859 34.4811C57.1102 33.8772 56.5997 33.1512 56.2619 32.3029H56.19V44.5456H58.663V45.056H49.3677V44.5456H51.7688V19.8372H49.3677ZM56.2906 29.6286C56.3481 30.5344 56.5279 31.3827 56.8154 32.1735C57.103 32.9642 57.5343 33.6184 58.1022 34.136C58.6702 34.6608 59.4681 34.9196 60.4818 34.9196C61.1575 34.9196 61.6967 34.7399 62.0993 34.3733C62.5019 34.0066 62.8038 33.489 63.0051 32.8133C63.2136 32.1375 63.343 31.318 63.4077 30.3618C63.4652 29.4057 63.5011 28.3346 63.5011 27.1484C63.5011 25.6962 63.4436 24.4669 63.3358 23.4605C63.228 22.454 63.041 21.6488 62.7751 21.045C62.5091 20.4411 62.1712 20.0026 61.7542 19.7366C61.3445 19.4706 60.8197 19.334 60.1942 19.334C59.2956 19.334 58.5839 19.5856 58.0519 20.096C57.5199 20.6065 57.1174 21.2463 56.8514 22.0227C56.5854 22.7991 56.4056 23.6474 56.3266 24.5676C56.2403 25.4877 56.1972 26.3504 56.1972 27.1484C56.2044 27.896 56.2331 28.7228 56.2906 29.6286Z" fill="white"/>
<path d="M76.463 27.4359C76.463 28.3058 76.499 29.19 76.5709 30.0671C76.6427 30.9513 76.8369 31.7493 77.1532 32.4682C77.4695 33.1799 77.9296 33.7694 78.5334 34.2295C79.1373 34.6896 79.9856 34.9196 81.0783 34.9196C82.0488 34.9196 82.8612 34.7399 83.5298 34.3733C84.1983 34.0066 84.7375 33.5897 85.1616 33.1224C85.5858 32.6479 85.9021 32.1806 86.1034 31.7206C86.3119 31.2605 86.4269 30.9226 86.4485 30.6997L86.9589 30.8794C86.8367 31.3395 86.6354 31.8284 86.3406 32.3532C86.0531 32.8708 85.6505 33.3596 85.1401 33.8053C84.6297 34.2511 84.0042 34.6321 83.2494 34.934C82.5017 35.2359 81.5887 35.3869 80.5248 35.3869C79.2667 35.3869 78.0877 35.2 77.0022 34.8262C75.9095 34.4524 74.9605 33.906 74.1482 33.1943C73.3358 32.4826 72.7032 31.6055 72.2431 30.5775C71.783 29.5495 71.553 28.3777 71.553 27.0693C71.553 26.0269 71.7686 25.0133 72.2072 24.014C72.6457 23.0219 73.2424 22.1449 74.0044 21.3829C74.7664 20.6208 75.6651 20.0026 76.6931 19.5281C77.7211 19.0536 78.8282 18.8164 80.0144 18.8164C80.8627 18.8164 81.7109 18.953 82.5592 19.219C83.4075 19.485 84.1696 19.8947 84.8453 20.4555C85.5211 21.0162 86.0818 21.7351 86.5204 22.6194C86.9589 23.5036 87.1745 24.5604 87.1745 25.7969H76.4558L76.463 27.4359ZM82.2789 22.8566C82.2789 22.5906 82.2645 22.2599 82.2429 21.8789C82.2214 21.4907 82.1351 21.1025 81.9913 20.7143C81.8475 20.3261 81.6103 20.0026 81.2796 19.7366C80.9489 19.4706 80.496 19.334 79.9137 19.334C79.087 19.334 78.4544 19.5281 78.0086 19.9163C77.5629 20.3045 77.2251 20.7934 77.0094 21.39C76.7937 21.9867 76.6499 22.6265 76.5924 23.3167C76.5277 24.0068 76.4918 24.6682 76.463 25.2936H82.2789V22.8566Z" fill="white"/>
<path d="M96.9946 19.3274V22.3827H97.0665C97.505 21.4625 98.0873 20.6717 98.8278 20.0032C99.5682 19.3346 100.539 19.0039 101.754 19.0039C102.775 19.0039 103.594 19.2771 104.227 19.8234C104.859 20.3698 105.168 21.1246 105.168 22.0952C105.168 22.8212 104.989 23.3892 104.644 23.8061C104.291 24.2159 103.731 24.4244 102.954 24.4244C102.394 24.4244 101.89 24.3093 101.43 24.0793C100.97 23.8493 100.74 23.4179 100.74 22.7925C100.74 22.7206 100.754 22.5912 100.776 22.4115C100.798 22.2317 100.834 22.0376 100.869 21.8292C100.905 21.6207 100.934 21.4338 100.963 21.2684C100.984 21.0959 100.999 21.0024 100.999 20.9809C100.977 20.7868 100.941 20.6358 100.891 20.528C100.841 20.4201 100.762 20.3195 100.654 20.2404C100.546 20.1541 100.381 20.111 100.165 20.111C99.9205 20.111 99.6186 20.226 99.2591 20.4561C98.8925 20.6861 98.5546 21.0168 98.2383 21.4553C97.922 21.8939 97.6488 22.4187 97.4188 23.0369C97.1887 23.6551 97.0737 24.3525 97.0737 25.1289V34.4314H99.9421V34.9418H90.2729V34.4314H92.6381V19.8378H90.2729V19.3274H96.9946Z" fill="white"/>
<path d="M111.797 15.0073C112.171 15.1007 112.544 15.151 112.904 15.151C113.27 15.151 113.637 15.1007 114.011 15.0073C114.385 14.9138 114.759 14.7916 115.118 14.6406V19.3278H119.367V19.8382H115.118V32.0091C115.118 32.3757 115.14 32.7136 115.19 33.0299C115.24 33.3462 115.326 33.6266 115.463 33.8854C115.592 34.137 115.794 34.3383 116.045 34.4821C116.297 34.6259 116.635 34.6978 117.045 34.6978C117.505 34.6978 117.9 34.6043 118.224 34.4102C118.554 34.2161 118.835 33.9717 119.079 33.6626C119.324 33.3606 119.518 33.0156 119.676 32.6274C119.834 32.2392 119.963 31.8653 120.057 31.4987L120.603 31.6065C120.459 32.4333 120.208 33.0874 119.855 33.5835C119.503 34.0795 119.101 34.4605 118.655 34.7265C118.209 34.9925 117.728 35.1651 117.217 35.2513C116.707 35.3376 116.225 35.3807 115.765 35.3807C114.507 35.3807 113.529 35.2369 112.839 34.9422C112.149 34.6546 111.639 34.288 111.315 33.8495C110.992 33.4109 110.797 32.9437 110.754 32.4333C110.704 31.9228 110.682 31.4556 110.682 31.017V19.8382H108.245V19.3278H110.682V14.6406C111.056 14.7916 111.423 14.9066 111.797 15.0073Z" fill="white"/>
<path d="M7.61461 18.5799H12.6828V10.5283H18.2399C19.3829 10.5283 20.3462 10.7439 21.137 11.1753C21.9278 11.6066 22.5748 12.1098 23.078 12.6921C23.5812 13.2744 23.9694 13.8711 24.2498 14.4894C24.5302 15.1076 24.7243 15.6108 24.8465 16.0062H25.2994V10.0322H4.88281V10.5211H7.61461V18.5799Z" fill="white"/>
<path d="M26.2698 27.2643C26.0398 28.2635 25.7019 29.2053 25.2562 30.0751C24.8104 30.9522 24.2569 31.7142 23.5955 32.3612C22.9341 33.0154 22.1721 33.5186 21.3094 33.8781C20.4468 34.2375 19.4834 34.4173 18.4123 34.4173H12.6827V26.2578H7.6145V34.4244H4.88989V34.9133H26.7299V27.2643H26.2698Z" fill="white"/>
<path d="M136.894 21.2626C136.894 22.3553 136.074 23.182 134.96 23.182H133.313V25.5544H132.846V19.3359H134.96C136.074 19.3359 136.894 20.1627 136.894 21.2626ZM136.419 21.2626C136.419 20.3999 135.808 19.7817 134.953 19.7817H133.306V22.7363H134.953C135.808 22.7363 136.419 22.1181 136.419 21.2626Z" fill="white"/>
<path d="M142.077 25.1087V25.5544H138.497V19.3359H142.034V19.7817H138.971V22.1971H141.811V22.6429H138.971V25.1087H142.077Z" fill="white"/>
<path d="M147.763 20.2063L144.09 25.5549H143.68V19.3365H144.147V24.6851L147.814 19.3365H148.231V25.5549H147.763V20.2063ZM144.823 18.1719H147.066V18.5601H144.823V18.1719Z" fill="white"/>
<path d="M154.039 19.7817H152.084V25.5544H151.602V19.7817H149.647V19.3359H154.032L154.039 19.7817Z" fill="white"/>
<path d="M159.546 20.2058L155.872 25.5544H155.463V19.3359H155.93V24.6845L159.596 19.3359H160.013V25.5544H159.546V20.2058Z" fill="white"/>
<path d="M166.562 19.3359V25.5544H166.095V22.5781H162.479V25.5544H162.012V19.3359H162.479V22.1324H166.095V19.3359H166.562Z" fill="white"/>
<path d="M171.954 19.7817H169.021V25.5544H168.554V19.3359H171.954V19.7817Z" fill="white"/>
<path d="M172.579 22.4416C172.579 20.666 173.988 19.2354 175.786 19.2354C177.583 19.2354 178.992 20.666 178.992 22.4416C178.992 24.2173 177.583 25.6479 175.786 25.6479C173.988 25.6479 172.579 24.2173 172.579 22.4416ZM178.517 22.4416C178.517 20.9104 177.317 19.6883 175.786 19.6883C174.247 19.6883 173.054 20.9104 173.054 22.4416C173.054 23.9657 174.254 25.195 175.786 25.195C177.317 25.195 178.517 23.9729 178.517 22.4416Z" fill="white"/>
<path d="M185.002 23.8578C185.002 24.7995 184.247 25.5544 183.306 25.5544H180.624V19.3359H183.104C184.01 19.3359 184.736 20.0764 184.736 20.9678C184.736 21.5717 184.42 22.0677 183.938 22.3265C184.556 22.571 185.002 23.1461 185.002 23.8578ZM181.091 19.7817V22.1612H183.097C183.737 22.1612 184.262 21.6292 184.262 20.975C184.262 20.3208 183.737 19.7888 183.097 19.7888L181.091 19.7817ZM184.535 23.8578C184.535 23.1676 183.981 22.6069 183.313 22.6069H181.098V25.1087H183.313C183.981 25.1087 184.535 24.5479 184.535 23.8578Z" fill="white"/>
<path d="M186.245 22.4416C186.245 20.666 187.654 19.2354 189.452 19.2354C191.249 19.2354 192.658 20.666 192.658 22.4416C192.658 24.2173 191.249 25.6479 189.452 25.6479C187.654 25.6479 186.245 24.2173 186.245 22.4416ZM192.183 22.4416C192.183 20.9104 190.983 19.6883 189.452 19.6883C187.913 19.6883 186.72 20.9104 186.72 22.4416C186.72 23.9657 187.92 25.195 189.452 25.195C190.99 25.195 192.183 23.9729 192.183 22.4416Z" fill="white"/>
<path d="M197.87 25.1087V25.5544H194.29V19.3359H197.827V19.7817H194.765V22.1971H197.604V22.6429H194.765V25.1087H197.87Z" fill="white"/>
<path d="M137.066 33.3332H133.946L133.342 34.9147H132.846L135.262 28.6963H135.758L138.166 34.9147H137.67L137.066 33.3332ZM136.894 32.8874L135.506 29.2714L134.119 32.8874H136.894Z" fill="white"/>
<path d="M142.925 29.1348H139.992V34.9147H139.518V28.6963H142.918V29.1348H142.925Z" fill="white"/>
<path d="M147.928 34.469V34.9147H144.348V28.6963H147.885V29.142H144.816V31.5575H147.662V32.0032H144.816V34.4762L147.928 34.469Z" fill="white"/>
<path d="M154.082 28.6885V34.9069H153.608V31.9307H149.992V34.9069H149.517V28.6885H149.992V31.485H153.608V28.6885H154.082Z" fill="white"/>
<path d="M160.711 31.802C160.711 30.0263 162.055 28.5957 163.946 28.5957C165.089 28.5957 166.095 29.1852 166.613 30.091L166.196 30.3282C165.786 29.5662 164.923 29.0486 163.946 29.0486C162.314 29.0486 161.185 30.2779 161.185 31.802C161.185 33.3332 162.314 34.5553 163.946 34.5553C164.931 34.5553 165.8 34.0305 166.21 33.2469L166.627 33.4842C166.124 34.3972 165.11 35.001 163.946 35.001C162.055 35.0082 160.711 33.5776 160.711 31.802Z" fill="white"/>
<path d="M171.918 29.1342H169.963V34.9141H169.481V29.1342H167.526V28.6885H171.918V29.1342Z" fill="white"/>
<path d="M159.934 29.1342H157.979V34.9141H157.497V29.1342H155.542V28.6885H159.934V29.1342Z" fill="white"/>
<path d="M177.727 33.2181C177.727 34.1599 176.972 34.9147 176.03 34.9147H173.349V28.6963H175.829C176.735 28.6963 177.461 29.4367 177.461 30.3282C177.461 30.932 177.144 31.4281 176.663 31.6869C177.281 31.9241 177.727 32.5064 177.727 33.2181ZM173.816 29.1348V31.5144H175.822C176.461 31.5144 176.986 30.9824 176.986 30.321C176.986 29.6668 176.461 29.1276 175.822 29.1276H173.816V29.1348ZM177.252 33.2181C177.252 32.528 176.699 31.9673 176.023 31.9673H173.809V34.4762H176.023C176.706 34.469 177.252 33.9083 177.252 33.2181Z" fill="white"/>
<path d="M178.97 31.802C178.97 30.0263 180.387 28.5957 182.177 28.5957C183.967 28.5957 185.383 30.0263 185.383 31.802C185.383 33.5776 183.967 35.0082 182.177 35.0082C180.387 35.0082 178.97 33.5776 178.97 31.802ZM184.916 31.802C184.916 30.2707 183.715 29.0486 182.177 29.0486C180.638 29.0486 179.438 30.2779 179.438 31.802C179.438 33.3332 180.638 34.5553 182.177 34.5553C183.715 34.5553 184.916 33.3332 184.916 31.802Z" fill="white"/>
<path d="M126.8 0.600586H126.333V47.4006H126.8V0.600586Z" fill="white"/>
</g>
<defs>
<clipPath id="clip0_2026_1540">
<rect width="198" height="46.8" fill="white" transform="translate(0 0.599609)"/>
</clipPath>
</defs>
</svg>
