<svg width="68" height="68" viewBox="0 0 68 68" fill="none" xmlns="http://www.w3.org/2000/svg">
<mask id="mask0_280_18051" style="mask-type:alpha" maskUnits="userSpaceOnUse" x="0" y="0" width="68" height="68">
<rect width="68" height="68" fill="#D9D9D9"/>
</mask>
<g mask="url(#mask0_280_18051)">
<path d="M9 25V55C9 56.1046 9.89543 57 11 57H48.0323M9 18.5V10C9 8.89543 9.89543 8 11 8H43.8571M43.8571 8V18.5C43.8571 19.6046 44.7526 20.5 45.8571 20.5H55M43.8571 8L55 20.5M55 20.5V27.5" stroke="#1D3A44" stroke-width="2"/>
<rect x="15" y="13" width="15" height="7" rx="1" stroke="#1D3A44" stroke-width="2"/>
<path d="M14 27H50" stroke="#1D3A44" stroke-width="2"/>
<path d="M14 33H39" stroke="#1D3A44" stroke-width="2"/>
<path d="M14 39H31" stroke="#1D3A44" stroke-width="2"/>
<path d="M14 50H27" stroke="#B71923" stroke-width="2"/>
<rect x="39.9395" y="41.1602" width="12" height="8" transform="rotate(-36.8089 39.9395 41.1602)" stroke="#B71923" stroke-width="2"/>
<rect x="36.1377" y="42.7559" width="4" height="10" rx="1" transform="rotate(-36.8089 36.1377 42.7559)" stroke="#B71923" stroke-width="2"/>
<rect x="47.9375" y="45.1689" width="4" height="16" rx="1" transform="rotate(-36.8089 47.9375 45.1689)" stroke="#B71923" stroke-width="2"/>
<rect x="48.9482" y="33.1699" width="4" height="10" rx="1" transform="rotate(-36.8089 48.9482 33.1699)" stroke="#B71923" stroke-width="2"/>
</g>
</svg>
