<svg width="68" height="68" viewBox="0 0 68 68" fill="none" xmlns="http://www.w3.org/2000/svg">
<path d="M11.1037 55.7752L4.99947 46.7253L12.1875 41.877L22.4903 57.1515L15.3023 61.9999L13.7911 59.7595" stroke="#1D3A44" stroke-width="2"/>
<path d="M20.8594 55.4247L23.3454 53.7674C23.8312 53.4435 24.4342 53.3481 24.9963 53.5062L38.1637 57.2095C40.2533 57.7973 42.4949 57.4559 44.3149 56.2729L60.2561 45.9112C61.8256 44.891 62.2369 42.7731 61.1635 41.2396V41.2396C60.1425 39.781 58.1503 39.3919 56.6554 40.3591L50.1217 44.5868" stroke="#1D3A44" stroke-width="2"/>
<path d="M13.2734 44.0446L23.1522 38.2072C24.4545 37.4376 26.0191 37.2472 27.468 37.6819L43.4475 42.4757C45.3212 43.0378 46.3593 45.0377 45.7407 46.8936V46.8936C45.1587 48.6395 43.3142 49.6266 41.5387 49.1424L32.7817 46.7541" stroke="#1D3A44" stroke-width="2"/>
<circle cx="41" cy="20" r="14" stroke="#B71923" stroke-width="2"/>
<path d="M36.8667 28.1666V12.7666H42.2427C43.96 12.7666 45.3102 13.1399 46.2933 13.8866C47.2889 14.6208 47.7867 15.7097 47.7867 17.1533C47.7867 18.5844 47.2889 19.6733 46.2933 20.4199C45.3102 21.1542 43.96 21.5213 42.2427 21.5213H38.2107L39.2933 20.4013V28.1666H36.8667ZM39.2933 20.6626L38.2107 19.5613H42.224C43.2196 19.5613 43.9849 19.3559 44.52 18.9453C45.0676 18.5222 45.3413 17.931 45.3413 17.1719C45.3413 16.4128 45.0676 15.8342 44.52 15.4359C43.9849 15.0253 43.2196 14.8199 42.224 14.8199H38.2107L39.2933 13.6253V20.6626ZM35 24.6668V22.5853H43.4V24.6668H35Z" fill="#B71923"/>
</svg>
