<svg width="24" height="24" viewBox="0 0 24 24" fill="none" xmlns="http://www.w3.org/2000/svg">
<mask id="mask0_4002_1175" style="mask-type:alpha" maskUnits="userSpaceOnUse" x="0" y="0" width="24" height="24">
<rect width="24" height="24" fill="#C4C4C4"/>
</mask>
<g mask="url(#mask0_4002_1175)">
<path fill-rule="evenodd" clip-rule="evenodd" d="M16.3894 1C16.5301 2.30545 16.0143 3.5876 15.2562 4.52784C14.4669 5.45253 13.2009 6.16742 11.9661 6.07418C11.8098 4.82312 12.435 3.49435 13.1305 2.67844C13.9199 1.75374 15.2953 1.04662 16.3894 1ZM20.415 8.51049C20.2457 8.61283 18.0072 9.96579 18.0303 12.7026C18.0612 15.9987 20.9094 17.1119 20.9983 17.1466L21 17.1473C20.9844 17.225 20.5467 18.7403 19.4604 20.2711C18.5461 21.6232 17.6004 22.9442 16.0843 22.9675C15.3662 22.9827 14.8815 22.777 14.3765 22.5627C13.8482 22.3385 13.2977 22.1049 12.4346 22.1049C11.5266 22.1049 10.9525 22.3455 10.399 22.5774C9.91877 22.7786 9.45415 22.9733 8.8006 22.9986C7.35481 23.053 6.26069 21.5532 5.31506 20.2167C3.43162 17.4815 1.97019 12.5083 3.93179 9.1281C4.87742 7.4652 6.62019 6.40063 8.47237 6.36955C9.28561 6.35636 10.0689 6.66876 10.7557 6.94269C11.2833 7.15313 11.754 7.34087 12.1377 7.34087C12.4744 7.34087 12.93 7.16057 13.4612 6.9504C14.2984 6.6191 15.3232 6.21357 16.3656 6.32292C17.0768 6.34624 19.1087 6.61044 20.4217 8.50645C20.42 8.50746 20.4178 8.50881 20.415 8.51049Z" fill="white"/>
</g>
</svg>
