<svg width="19" height="18" viewBox="0 0 19 18" fill="none" xmlns="http://www.w3.org/2000/svg">
<path d="M13.5697 10.2949C13.534 10.2781 12.1971 9.6349 11.9595 9.55136C11.8625 9.51733 11.7586 9.48412 11.6481 9.48412C11.4676 9.48412 11.3159 9.57201 11.1978 9.74467C11.0643 9.93861 10.66 10.4003 10.5351 10.5382C10.5187 10.5565 10.4965 10.5782 10.4831 10.5782C10.4712 10.5782 10.2643 10.495 10.2016 10.4684C8.76747 9.85973 7.67889 8.39607 7.52962 8.14924C7.5083 8.11376 7.50741 8.09765 7.50723 8.09765C7.51247 8.07886 7.5607 8.03162 7.58559 8.00725C7.65841 7.93686 7.7373 7.84408 7.81363 7.75432C7.84977 7.71179 7.88597 7.66921 7.92152 7.62907C8.03226 7.50319 8.08156 7.40546 8.13872 7.29226L8.16867 7.23344C8.30823 6.96254 8.18903 6.73392 8.15051 6.6601C8.11889 6.59832 7.55439 5.26724 7.49437 5.12739C7.35004 4.78993 7.15934 4.63281 6.89432 4.63281C6.86973 4.63281 6.89432 4.63281 6.79119 4.63706C6.66562 4.64224 5.9818 4.73019 5.67945 4.9164C5.35882 5.11389 4.81641 5.74343 4.81641 6.85056C4.81641 7.84698 5.46361 8.7878 5.74149 9.14561C5.7484 9.15463 5.76108 9.17295 5.77948 9.19925C6.84365 10.7177 8.17028 11.8429 9.51513 12.3678C10.8098 12.8731 11.4229 12.9315 11.7715 12.9315C11.7715 12.9315 11.7715 12.9315 11.7715 12.9315C11.918 12.9315 12.0352 12.9203 12.1387 12.9103L12.2043 12.9042C12.6516 12.8655 13.6345 12.3679 13.858 11.7608C14.0342 11.2827 14.0806 10.7603 13.9634 10.5708C13.8832 10.4419 13.7448 10.377 13.5697 10.2949Z" fill="#74909A"/>
<path d="M9.33205 0C4.3654 0 0.324722 3.91811 0.324722 8.7341C0.324722 10.2918 0.751391 11.8165 1.55966 13.151L0.0126088 17.6096C-0.0162089 17.6927 0.00522576 17.7846 0.0681604 17.8472C0.11359 17.8925 0.175215 17.9169 0.238149 17.9169C0.262263 17.9169 0.286556 17.9134 0.310253 17.906L5.06875 16.4287C6.37091 17.1084 7.84264 17.4672 9.33211 17.4672C14.2983 17.4673 18.3385 13.5496 18.3385 8.7341C18.3385 3.91811 14.2983 0 9.33205 0ZM9.33205 15.6479C7.93052 15.6479 6.57305 15.2525 5.40617 14.5044C5.36693 14.4792 5.32138 14.4663 5.27554 14.4663C5.2513 14.4663 5.22701 14.4699 5.20337 14.4772L2.81966 15.2175L3.58916 12.9995C3.61405 12.9277 3.60161 12.8485 3.55576 12.7873C2.66717 11.6011 2.19746 10.1996 2.19746 8.7341C2.19746 4.92134 5.39801 1.81938 9.33199 1.81938C13.2655 1.81938 16.4657 4.92134 16.4657 8.7341C16.4657 12.5464 13.2656 15.6479 9.33205 15.6479Z" fill="#74909A"/>
</svg>
