<svg width="68" height="68" viewBox="0 0 68 68" fill="none" xmlns="http://www.w3.org/2000/svg">
<mask id="mask0_4002_1392" style="mask-type:alpha" maskUnits="userSpaceOnUse" x="0" y="0" width="68" height="68">
<rect width="68" height="68" fill="#D9D9D9"/>
</mask>
<g mask="url(#mask0_4002_1392)">
<path d="M60 53V23C60 21.8954 59.1046 21 58 21H49.5L24.5 55H58C59.1046 55 60 54.1046 60 53Z" stroke="#1D3A44" stroke-width="2"/>
<path d="M39 35L60 35" stroke="#1D3A44" stroke-width="2"/>
<path d="M36 39H60" stroke="#1D3A44" stroke-width="2"/>
<path d="M32 45L42 45" stroke="#1D3A44" stroke-width="2"/>
<path d="M29 49L32 49" stroke="#1D3A44" stroke-width="2"/>
<mask id="mask1_4002_1392" style="mask-type:alpha" maskUnits="userSpaceOnUse" x="4" y="7" width="47" height="54">
<path d="M4 7V61H11L51 7H4Z" fill="#D9D9D9"/>
</mask>
<g mask="url(#mask1_4002_1392)">
<rect x="8" y="17" width="46" height="34" rx="2" stroke="#1D3A44" stroke-width="2"/>
<path d="M9 31H54" stroke="#B71923" stroke-width="2"/>
<path d="M9 35H54" stroke="#B71923" stroke-width="2"/>
<path d="M11 41H36" stroke="#B71923" stroke-width="2"/>
<path d="M11 45H26" stroke="#B71923" stroke-width="2"/>
<rect x="12" y="21" width="8" height="6" rx="1" stroke="#B71923" stroke-width="2"/>
</g>
<path d="M48 11L14 57" stroke="#1D3A44" stroke-width="2"/>
</g>
</svg>
