<svg width="137" height="32" viewBox="0 0 137 32" fill="none" xmlns="http://www.w3.org/2000/svg">
<mask id="mask0_23_952" style="mask-type:alpha" maskUnits="userSpaceOnUse" x="0" y="0" width="137" height="32">
<rect x="0.0996094" width="136.8" height="32" fill="#D9D9D9"/>
</mask>
<g mask="url(#mask0_23_952)">
<path d="M48.5793 19.0814H49.918L49.1597 22.8245H47.1344L47.5251 20.8663H40.8504L40.4666 22.8245H38.432L39.1881 19.0814H39.4724C40.0581 19.0645 40.5645 18.6321 40.9914 17.7844C41.5122 16.6663 41.9047 15.4928 42.1613 14.2864L42.8549 11.408H50.1238L48.5793 19.0814ZM43.2155 17.4399C43.0227 18.0445 42.7079 18.6032 42.2907 19.0814H46.413L47.5875 13.1905H44.3507L44.0132 14.654C43.798 15.5964 43.5317 16.5264 43.2155 17.4399Z" fill="white"/>
<path d="M59.4112 12.1848C59.7309 12.4453 59.9847 12.7773 60.1522 13.154C60.3197 13.5308 60.3961 13.9417 60.3753 14.3535C60.3933 15.0865 60.199 15.8091 59.8158 16.4342C59.4297 17.0342 58.8746 17.5064 58.2205 17.7914C57.4504 18.1199 56.6183 18.2776 55.7814 18.2538H53.6729L53.1596 20.8617H50.9586L52.8498 11.4172H56.6738C57.8529 11.4172 58.7654 11.6731 59.4112 12.1848ZM57.5616 15.9742C57.7628 15.7964 57.9208 15.5751 58.0238 15.3271C58.1267 15.0792 58.1719 14.811 58.1558 14.543C58.1679 14.3489 58.132 14.1548 58.0513 13.9778C57.9707 13.8008 57.8478 13.6464 57.6934 13.5281C57.306 13.2791 56.849 13.1608 56.3894 13.1905H54.6739L54.0104 16.4735H55.86C56.6068 16.4735 57.1686 16.3071 57.5755 15.9742H57.5616Z" fill="white"/>
<path d="M67.2006 18.8387H62.8079L61.5779 20.8663H59.2289L65.3487 11.4172H67.5174L69.8294 20.8663H67.6399L67.2006 18.8387ZM66.8353 17.1764L66.0377 13.5281L63.8182 17.1764H66.8353Z" fill="white"/>
<path d="M72.9951 11.4173H75.1568L73.9014 17.5788L79.6444 11.4173H81.7252L79.8317 20.8756H77.67L78.9415 14.7281L73.1847 20.8756H71.1039L72.9951 11.4173ZM75.7325 10.4093C75.5368 10.2647 75.3803 10.0735 75.2773 9.85304C75.1743 9.63256 75.1281 9.38983 75.143 9.14694C75.1399 9.01535 75.1491 8.88376 75.1707 8.75391H76.5579C76.5473 8.81652 76.5427 8.88 76.544 8.94349C76.5382 9.05931 76.5589 9.17493 76.6045 9.28152C76.6502 9.38811 76.7197 9.48284 76.8076 9.55848C77.0264 9.72358 77.2968 9.80552 77.5705 9.78968C77.8825 9.8024 78.1895 9.70954 78.4422 9.52611C78.6807 9.33725 78.8379 9.06426 78.8814 8.76316H80.301C80.2666 9.06985 80.1711 9.36655 80.0202 9.63576C79.8693 9.90498 79.6661 10.1413 79.4224 10.3307C78.96 10.6729 78.3073 10.8439 77.4642 10.8439C76.6997 10.8316 76.1225 10.6836 75.7325 10.4V10.4093Z" fill="white"/>
<path d="M91.0155 16.7117C91.2435 17.0574 91.359 17.4653 91.3461 17.8792C91.3685 18.3202 91.2733 18.7592 91.0701 19.1513C90.867 19.5433 90.5633 19.8743 90.1901 20.1103C89.4194 20.6143 88.3883 20.8663 87.0966 20.8663H82.1305L84.0217 11.4172H88.5902C89.6075 11.4172 90.3912 11.6037 90.9415 11.9767C91.2054 12.1499 91.42 12.3885 91.5643 12.6693C91.7085 12.9501 91.7775 13.2635 91.7645 13.5789C91.7764 14.1095 91.614 14.6293 91.3021 15.0586C90.9855 15.4798 90.5581 15.8048 90.0675 15.9973C90.4482 16.1346 90.7785 16.3836 91.0155 16.7117ZM88.6572 18.8665C88.8227 18.7561 88.9568 18.6049 89.0467 18.4275C89.1367 18.2501 89.1793 18.0525 89.1705 17.8538C89.1705 17.2041 88.7081 16.8805 87.7509 16.8805H85.1037L84.6413 19.2179H87.2215C87.7244 19.2467 88.2245 19.1243 88.6572 18.8665ZM85.8597 13.0564L85.4135 15.2852H87.6446C88.1173 15.313 88.5869 15.1925 88.9878 14.9407C89.1446 14.8283 89.2707 14.6784 89.3547 14.5048C89.4387 14.3311 89.4779 14.1392 89.4687 13.9465C89.4687 13.3531 89.0063 13.0564 88.0816 13.0564H85.8597Z" fill="white"/>
<path d="M100.251 16.735C100.495 17.0833 100.622 17.5003 100.614 17.9256C100.617 18.539 100.383 19.1297 99.9599 19.5741C99.478 20.08 98.8795 20.4602 98.2167 20.6815C97.4639 20.9469 96.6705 21.0792 95.8723 21.0722C95.2219 21.072 94.5743 20.9857 93.9464 20.8156C93.3283 20.6522 92.7416 20.3873 92.2101 20.0318L93.2112 18.4643C93.5947 18.7325 94.0218 18.932 94.4736 19.0539C94.9382 19.1822 95.418 19.2475 95.9001 19.2481C96.5213 19.2675 97.1372 19.1283 97.6896 18.8435C98.1797 18.573 98.4271 18.2077 98.4271 17.7499C98.4271 17.1334 97.9585 16.8251 97.0214 16.8251H94.684L95.0076 15.1767H97.1971C97.6063 15.1964 98.0111 15.0855 98.3531 14.8599C98.4889 14.7711 98.6002 14.6496 98.6769 14.5066C98.7537 14.3637 98.7934 14.2037 98.7924 14.0415C98.7966 13.8806 98.7554 13.7218 98.6737 13.5832C98.5919 13.4446 98.4728 13.3318 98.33 13.2577C97.9437 13.0602 97.5126 12.967 97.0792 12.9872C96.6441 12.9931 96.2111 13.0497 95.7891 13.156C95.3147 13.2731 94.8548 13.443 94.4181 13.6623L94.0944 11.9607C95.1337 11.47 96.2675 11.212 97.4167 11.2047C98.0456 11.1978 98.671 11.2979 99.2663 11.5006C99.7711 11.6682 100.225 11.9618 100.584 12.3537C100.903 12.7096 101.077 13.1727 101.07 13.6508C101.071 14.1513 100.897 14.6365 100.577 15.0218C100.227 15.4471 99.7663 15.7672 99.2455 15.9466C99.6482 16.1097 99.9967 16.3829 100.251 16.735Z" fill="white"/>
<path d="M108.696 18.8387H104.292L103.062 20.8663H100.724L106.846 11.4172H109.008L111.332 20.8756H109.133L108.696 18.8387ZM108.333 17.1764L107.535 13.5281L105.304 17.1764H108.333Z" fill="white"/>
<path d="M114.494 11.4173H116.656L115.398 17.5787L121.141 11.4173H123.222L121.331 20.8756H119.169L120.438 14.728L114.682 20.8664H112.601L114.494 11.4173ZM117.225 10.4C117.03 10.2551 116.874 10.0637 116.771 9.84328C116.669 9.62285 116.623 9.38032 116.637 9.13767C116.634 9.00607 116.644 8.87448 116.665 8.74463H118.052C118.042 8.80725 118.037 8.87072 118.039 8.93421C118.033 9.05003 118.053 9.16565 118.099 9.27224C118.145 9.37883 118.214 9.47356 118.302 9.5492C118.521 9.7143 118.791 9.79624 119.065 9.7804C119.377 9.79312 119.684 9.70026 119.937 9.51683C120.175 9.32735 120.332 9.05466 120.376 8.75388H121.796C121.761 9.06057 121.666 9.35727 121.515 9.62649C121.364 9.8957 121.161 10.132 120.917 10.3214C120.455 10.6636 119.796 10.8347 118.956 10.8347C118.198 10.8285 117.621 10.6836 117.225 10.4Z" fill="white"/>
<path d="M136.222 11.4172L134.333 20.8663H132.294L133.415 15.232L129.794 19.856H128.807L126.86 15.1534L125.725 20.8571H123.698L125.587 11.4172H127.371L129.734 17.3082L134.333 11.4172H136.222Z" fill="white"/>
<path d="M29.2185 11.8557C27.613 8.29876 24.8004 6.50474 20.9442 6.43671C16.9518 6.36479 15.6787 6.42116 11.6844 6.42116H0.100006L5.55789 13.8558C10.1878 13.8558 14.3842 13.8558 18.9538 13.8558V10.398L24.4933 15.9355L18.9538 21.4731V18.0231H13.6398C11.7058 20.6859 9.90593 23.1602 8.05943 25.6948C9.57356 27.761 11.1518 29.9126 12.6854 32.0001C13.7233 30.5793 14.5552 29.3975 16.0616 27.3353C16.8663 26.2293 17.2084 25.7609 17.4222 25.4771C18.9441 25.4771 20.1434 25.4771 20.4913 25.4674C21.8564 25.4495 23.203 25.149 24.4462 24.5846C25.6893 24.0202 26.802 23.2043 27.714 22.1884C28.8861 20.8957 29.6708 19.2994 29.9784 17.5818C30.324 15.6405 30.0584 13.6397 29.2185 11.8557Z" fill="white"/>
</g>
</svg>
