<svg width="26" height="28" viewBox="0 0 26 28" fill="none" xmlns="http://www.w3.org/2000/svg">
<path d="M25.4791 9.28804C25.369 7.84508 24.2676 5.99513 23.1662 5.10716C21.9276 4.19841 20.6407 3.35851 19.3113 2.59123C17.9919 1.8031 16.6315 1.08676 15.2361 0.445285C14.4907 0.138846 13.6914 -0.0121893 12.8865 0.00129732C12.0812 -0.0157526 11.2812 0.135417 10.5368 0.445285C9.14162 1.08722 7.78131 1.80355 6.46166 2.59123C4.3323 3.88619 2.60678 5.10716 2.60678 5.10716C1.75242 5.82774 1.09343 6.74341 0.678083 7.76827C0.552575 8.07795 0.792466 8.39993 1.12662 8.39993H2.42373C2.79528 8.39993 3.13008 8.18961 3.33721 7.88116C3.62972 7.44555 3.98402 7.0499 4.39238 6.70785C4.39238 6.70785 5.81711 5.70665 7.57528 4.64478C8.66488 3.99889 9.78806 3.4115 10.9401 2.88511C11.5547 2.63102 12.2153 2.50706 12.8801 2.52104C13.5447 2.50998 14.2047 2.63383 14.8202 2.88511C15.9723 3.41112 17.0955 3.99852 18.1849 4.64478C19.2826 5.27396 20.3452 5.96267 21.3678 6.70785C22.2772 7.43599 23.1866 8.95295 23.2776 10.1362C23.2776 10.1362 23.4898 11.8958 23.5201 13.9801C23.5182 15.2674 23.4474 16.5536 23.3079 17.8332C23.0964 19.1731 22.4072 20.391 21.3678 21.2615C21.3678 21.2615 19.9431 22.2931 18.1849 23.3549C17.0953 24.0008 15.9722 24.5882 14.8202 25.1146C14.2055 25.3687 13.545 25.4927 12.8801 25.4787C12.2161 25.4926 11.5562 25.3719 10.9401 25.1237C9.78788 24.5977 8.66468 24.0103 7.57528 23.3641C5.81711 22.3325 4.39238 21.2706 4.39238 21.2706C4.03283 20.9828 3.67327 20.5716 3.36243 20.1064C3.1594 19.8026 2.82807 19.5998 2.46266 19.5998H1.13932C0.800892 19.5998 0.562014 19.9289 0.69779 20.2389C1.15009 21.2716 1.87843 22.2795 2.60678 22.8667C2.60678 22.8667 4.3323 24.1616 6.46166 25.4196C7.78106 26.2077 9.1414 26.9241 10.5368 27.5655C11.283 27.8682 12.0823 28.0154 12.8865 27.9984C13.6917 28.0155 14.4917 27.8643 15.2361 27.5544C16.6313 26.9125 17.9916 26.1962 19.3113 25.4085C21.4407 24.1135 23.1662 22.8556 23.1662 22.8556C24.425 21.7939 25.2596 20.3087 25.5158 18.6747C25.6848 17.1142 25.7706 15.5456 25.7728 13.9758C25.7361 11.434 25.4791 9.28804 25.4791 9.28804Z" fill="url(#paint0_linear_4017_1109)"/>
<path d="M0.000118256 10.9217C0.000118256 10.6124 0.250838 10.3617 0.560117 10.3617H9.2401C9.54938 10.3617 9.8001 10.6124 9.8001 10.9217V12.6017C9.8001 12.911 9.54938 13.1617 9.2401 13.1617H0.000118256V10.9217Z" fill="#0066B3"/>
<path d="M-6.10352e-05 14.8414H17.6399C17.9492 14.8414 18.1999 15.0921 18.1999 15.4014V17.0814C18.1999 17.3907 17.9492 17.6414 17.6399 17.6414H0.559938C0.250659 17.6414 -6.10352e-05 17.3907 -6.10352e-05 17.0814V14.8414Z" fill="#EE2F53"/>
<defs>
<linearGradient id="paint0_linear_4017_1109" x1="13.1141" y1="0" x2="13.1141" y2="27.9998" gradientUnits="userSpaceOnUse">
<stop stop-color="#0066B3"/>
<stop offset="0.354167" stop-color="#0066B3"/>
<stop offset="0.6875" stop-color="#EE2F53"/>
<stop offset="1" stop-color="#EE2F53"/>
</linearGradient>
</defs>
</svg>
