<svg width="24" height="24" viewBox="0 0 24 24" fill="none" xmlns="http://www.w3.org/2000/svg">
<mask id="mask0_4002_1172" style="mask-type:alpha" maskUnits="userSpaceOnUse" x="0" y="0" width="24" height="24">
<rect width="24" height="24" fill="#C4C4C4"/>
</mask>
<g mask="url(#mask0_4002_1172)">
<path fill-rule="evenodd" clip-rule="evenodd" d="M13.3173 12.5251C13.4339 12.4096 13.6215 12.4092 13.7386 12.5242L15.9038 14.6499C16.046 14.7894 16.0152 15.0262 15.842 15.1247L11.9996 17.3105L5.70939 20.8895C5.40472 21.0628 5.10087 20.6622 5.34993 20.4156L13.3173 12.5251ZM13.7345 10.6647C13.6179 10.7802 13.4302 10.7806 13.3132 10.6657L5.3013 2.80012C5.05062 2.55401 5.35449 2.15157 5.65983 2.3253L11.9996 5.93242L15.7927 8.09033C15.9653 8.18856 15.9966 8.42446 15.8554 8.56424L13.7345 10.6647ZM14.4752 11.8065C14.3558 11.6892 14.3554 11.497 14.4743 11.3792L16.9029 8.97403C16.9985 8.87937 17.1454 8.85991 17.2624 8.92643L21.5416 11.3607C21.7438 11.4758 21.7438 11.7672 21.5416 11.8822L17.3135 14.2876C17.197 14.3539 17.0506 14.3348 16.955 14.2409L14.4752 11.8065ZM12.5765 11.3833C12.6959 11.5006 12.6964 11.6928 12.5775 11.8106L2.5111 21.7798C2.3217 21.9674 2 21.8332 2 21.5667V1.71493C2 1.44899 2.32039 1.31454 2.51017 1.50085L12.5765 11.3833ZM2.01114 22.9841C2.007 22.98 2 22.9829 2 22.9887V22.9887C2 22.9938 2.00543 22.9969 2.00979 22.9944V22.9944C2.01358 22.9923 2.01425 22.9871 2.01114 22.9841V22.9841Z" fill="white"/>
</g>
</svg>
