<svg width="24" height="24" viewBox="0 0 24 24" fill="none" xmlns="http://www.w3.org/2000/svg">
<path d="M16.5185 16.2494V18.0356C16.5185 19.0481 15.6107 19.7903 14.675 19.5429L12.2948 18.9135L12.122 10.844C12.094 9.53559 11.2052 8.42239 9.98237 8.16407L7.40741 7.62012V6.0421C7.40741 4.93382 8.39694 4.1184 9.42319 4.38102L12.5543 5.18227L14.888 5.81925C15.8695 6.08715 16.5536 7.0182 16.5507 8.08221L16.5288 16.2521L16.5185 16.2494Z" fill="white"/>
<path d="M17.7391 16.5721L20.1565 17.2113C21.0922 17.4588 22 16.7166 22 15.7041V5.69638C22 4.62153 21.2996 3.68596 20.3043 3.43127L14.9047 2.0495C13.8784 1.78689 12.8889 2.60231 12.8889 3.71059V5.23125L15.4598 5.81053C16.6668 6.0825 17.5381 7.18817 17.5658 8.48312L17.7391 16.5721Z" fill="white"/>
<path d="M11.1111 20.4449C11.1111 21.4573 10.2033 22.1995 9.26757 21.9521L3.56719 20.4448C2.64576 20.2011 2 19.3316 2 18.3347V8.45133C2 7.34305 2.98954 6.52763 4.01578 6.79025L9.41546 8.17202C10.4108 8.42671 11.1111 9.36228 11.1111 10.4371V20.4449Z" fill="white"/>
</svg>
