<svg width="216" height="223" viewBox="0 0 216 223" fill="none" xmlns="http://www.w3.org/2000/svg">
<path d="M206.723 55.8344C190.307 19.4312 161.55 1.07041 122.122 0.374169C81.3019 -0.361852 68.2849 0.215026 27.4451 0.215026H-91L-35.1956 76.3037C12.1427 76.3037 55.0492 76.3037 101.771 76.3037V40.915L158.41 97.5887L101.771 154.262V118.953H47.4377C27.6637 146.206 9.26102 171.529 -9.61866 197.469C5.86268 218.614 21.9998 240.635 37.6799 262C48.2923 247.459 56.798 235.364 72.1999 214.258C80.4275 202.939 83.9252 198.145 86.1112 195.241C101.672 195.241 113.934 195.241 117.491 195.141C131.449 194.959 145.218 191.882 157.928 186.106C170.639 180.33 182.016 171.98 191.341 161.583C203.324 148.353 211.348 132.016 214.493 114.438C218.026 94.5691 215.311 74.0926 206.723 55.8344Z" fill="#F8F9FB"/>
</svg>
