<svg width="341" height="272" viewBox="0 0 341 272" fill="none" xmlns="http://www.w3.org/2000/svg">
<path opacity="0.1" d="M304.564 153.638C292.899 127.795 272.464 114.76 244.446 114.266C215.439 113.743 206.189 114.153 177.168 114.153H93L132.655 168.17C166.294 168.17 196.784 168.17 229.985 168.17V143.047L270.233 183.281L229.985 223.514V198.448H191.375C177.323 217.795 164.246 235.772 150.83 254.188C161.831 269.2 173.298 284.833 184.441 300C191.982 289.677 198.026 281.09 208.971 266.107C214.818 258.071 217.303 254.668 218.856 252.606C229.914 252.606 238.628 252.606 241.155 252.535C251.074 252.406 260.858 250.222 269.89 246.121C278.922 242.021 287.007 236.093 293.633 228.711C302.149 219.32 307.85 207.721 310.086 195.242C312.596 181.137 310.667 166.6 304.564 153.638Z" fill="white"/>
</svg>
