<svg width="353" height="84" viewBox="0 0 353 84" fill="none" xmlns="http://www.w3.org/2000/svg">
<path d="M394 54C394 60.8639 388.173 67.7105 376.825 74.1495C365.556 80.5436 349.184 86.335 328.866 91.2114C288.245 100.96 232.077 107 170 107C107.923 107 51.7547 100.96 11.1343 91.2114C-9.18372 86.335 -25.5562 80.5436 -36.8249 74.1495C-48.1726 67.7105 -54 60.8639 -54 54C-54 47.1361 -48.1726 40.2895 -36.8249 33.8505C-25.5562 27.4564 -9.18372 21.665 11.1343 16.7886C51.7547 7.03973 107.923 1 170 1C232.077 1 288.245 7.03973 328.866 16.7886C349.184 21.665 365.556 27.4564 376.825 33.8505C388.173 40.2895 394 47.1361 394 54Z" stroke="url(#paint0_linear_4020_1914)" stroke-width="2"/>
<path d="M524 67C524 73.8639 518.173 80.7105 506.825 87.1495C495.556 93.5436 479.184 99.335 458.866 104.211C418.245 113.96 362.077 120 300 120C237.923 120 181.755 113.96 141.134 104.211C120.816 99.335 104.444 93.5436 93.1751 87.1495C81.8274 80.7105 76 73.8639 76 67C76 60.1361 81.8274 53.2895 93.1751 46.8505C104.444 40.4564 120.816 34.665 141.134 29.7886C181.755 20.0397 237.923 14 300 14C362.077 14 418.245 20.0397 458.866 29.7886C479.184 34.665 495.556 40.4564 506.825 46.8505C518.173 53.2895 524 60.1361 524 67Z" stroke="url(#paint1_linear_4020_1914)" stroke-width="2"/>
<defs>
<linearGradient id="paint0_linear_4020_1914" x1="-26.5" y1="21" x2="160.5" y2="-7" gradientUnits="userSpaceOnUse">
<stop stop-color="#B71923"/>
<stop offset="1" stop-color="#B71923" stop-opacity="0"/>
</linearGradient>
<linearGradient id="paint1_linear_4020_1914" x1="75" y1="54" x2="181" y2="24" gradientUnits="userSpaceOnUse">
<stop stop-color="#B71923"/>
<stop offset="1" stop-color="#B71923" stop-opacity="0"/>
</linearGradient>
</defs>
</svg>
