<svg width="118" height="118" viewBox="0 0 118 118" fill="none" xmlns="http://www.w3.org/2000/svg">
<path d="M44.8588 0.413086H40.8184V4.45349H44.8588V0.413086Z" fill="#262628"/>
<path d="M48.8978 0.413086H44.8574V4.45349H48.8978V0.413086Z" fill="#262628"/>
<path d="M65.0619 0.413086H61.0215V4.45349H65.0619V0.413086Z" fill="#262628"/>
<path d="M69.1029 0.413086H65.0625V4.45349H69.1029V0.413086Z" fill="#262628"/>
<path d="M85.2631 0.414062H81.2227V4.45447H85.2631V0.414062Z" fill="#262628"/>
<path d="M36.7787 4.45508H32.7383V8.49548H36.7787V4.45508Z" fill="#262628"/>
<path d="M40.8177 4.45508H36.7773V8.49548H40.8177V4.45508Z" fill="#262628"/>
<path d="M44.8588 4.45508H40.8184V8.49548H44.8588V4.45508Z" fill="#262628"/>
<path d="M48.8978 4.45508H44.8574V8.49548H48.8978V4.45508Z" fill="#262628"/>
<path d="M56.979 4.45508H52.9386V8.49548H56.979V4.45508Z" fill="#262628"/>
<path d="M61.0218 4.45508H56.9814V8.49548H61.0218V4.45508Z" fill="#262628"/>
<path d="M69.1029 4.45508H65.0625V8.49548H69.1029V4.45508Z" fill="#262628"/>
<path d="M77.183 4.45508H73.1426V8.49548H77.183V4.45508Z" fill="#262628"/>
<path d="M81.223 4.45508H77.1826V8.49548H81.223V4.45508Z" fill="#262628"/>
<path d="M36.7787 8.49512H32.7383V12.5355H36.7787V8.49512Z" fill="#262628"/>
<path d="M44.8588 8.49512H40.8184V12.5355H44.8588V8.49512Z" fill="#262628"/>
<path d="M48.8978 8.49512H44.8574V12.5355H48.8978V8.49512Z" fill="#262628"/>
<path d="M52.939 8.49512H48.8986V12.5355H52.939V8.49512Z" fill="#262628"/>
<path d="M56.979 8.49512H52.9386V12.5355H56.979V8.49512Z" fill="#262628"/>
<path d="M65.0619 8.49512H61.0215V12.5355H65.0619V8.49512Z" fill="#262628"/>
<path d="M73.1429 8.49512H69.1025V12.5355H73.1429V8.49512Z" fill="#262628"/>
<path d="M36.7787 12.5352H32.7383V16.5756H36.7787V12.5352Z" fill="#262628"/>
<path d="M40.8177 12.5352H36.7773V16.5756H40.8177V12.5352Z" fill="#262628"/>
<path d="M44.8588 12.5352H40.8184V16.5756H44.8588V12.5352Z" fill="#262628"/>
<path d="M48.8978 12.5352H44.8574V16.5756H48.8978V12.5352Z" fill="#262628"/>
<path d="M52.939 12.5352H48.8986V16.5756H52.939V12.5352Z" fill="#262628"/>
<path d="M69.1029 12.5352H65.0625V16.5756H69.1029V12.5352Z" fill="#262628"/>
<path d="M40.8177 16.5752H36.7773V20.6156H40.8177V16.5752Z" fill="#262628"/>
<path d="M48.8978 16.5752H44.8574V20.6156H48.8978V16.5752Z" fill="#262628"/>
<path d="M65.0619 16.5752H61.0215V20.6156H65.0619V16.5752Z" fill="#262628"/>
<path d="M69.1029 16.5752H65.0625V20.6156H69.1029V16.5752Z" fill="#262628"/>
<path d="M85.2631 16.5752H81.2227V20.6156H85.2631V16.5752Z" fill="#262628"/>
<path d="M40.8177 20.6152H36.7773V24.6556H40.8177V20.6152Z" fill="#262628"/>
<path d="M48.8978 20.6152H44.8574V24.6556H48.8978V20.6152Z" fill="#262628"/>
<path d="M65.0619 20.6152H61.0215V24.6556H65.0619V20.6152Z" fill="#262628"/>
<path d="M77.183 20.6162H73.1426V24.6566H77.183V20.6162Z" fill="#262628"/>
<path d="M81.223 20.6162H77.1826V24.6566H81.223V20.6162Z" fill="#262628"/>
<path d="M36.7787 24.6562H32.7383V28.6967H36.7787V24.6562Z" fill="#262628"/>
<path d="M44.8588 24.6562H40.8184V28.6967H44.8588V24.6562Z" fill="#262628"/>
<path d="M52.939 24.6562H48.8986V28.6967H52.939V24.6562Z" fill="#262628"/>
<path d="M61.0218 24.6562H56.9814V28.6967H61.0218V24.6562Z" fill="#262628"/>
<path d="M69.1029 24.6562H65.0625V28.6967H69.1029V24.6562Z" fill="#262628"/>
<path d="M77.183 24.6562H73.1426V28.6967H77.183V24.6562Z" fill="#262628"/>
<path d="M85.2631 24.6562H81.2227V28.6967H85.2631V24.6562Z" fill="#262628"/>
<path d="M36.7787 28.6963H32.7383V32.7367H36.7787V28.6963Z" fill="#262628"/>
<path d="M40.8177 28.6963H36.7773V32.7367H40.8177V28.6963Z" fill="#262628"/>
<path d="M48.8978 28.6963H44.8574V32.7367H48.8978V28.6963Z" fill="#262628"/>
<path d="M61.0218 28.6963H56.9814V32.7367H61.0218V28.6963Z" fill="#262628"/>
<path d="M65.0619 28.6963H61.0215V32.7367H65.0619V28.6963Z" fill="#262628"/>
<path d="M69.1029 28.6963H65.0625V32.7367H69.1029V28.6963Z" fill="#262628"/>
<path d="M73.1429 28.6963H69.1025V32.7367H73.1429V28.6963Z" fill="#262628"/>
<path d="M77.183 28.6963H73.1426V32.7367H77.183V28.6963Z" fill="#262628"/>
<path d="M4.45544 32.7363H0.415039V36.7767H4.45544V32.7363Z" fill="#262628"/>
<path d="M28.6976 32.7373H24.6572V36.7777H28.6976V32.7373Z" fill="#262628"/>
<path d="M36.7787 32.7363H32.7383V36.7767H36.7787V32.7363Z" fill="#262628"/>
<path d="M40.8177 32.7363H36.7773V36.7767H40.8177V32.7363Z" fill="#262628"/>
<path d="M52.939 32.7363H48.8986V36.7767H52.939V32.7363Z" fill="#262628"/>
<path d="M69.1029 32.7363H65.0625V36.7767H69.1029V32.7363Z" fill="#262628"/>
<path d="M73.1429 32.7363H69.1025V36.7767H73.1429V32.7363Z" fill="#262628"/>
<path d="M77.183 32.7363H73.1426V36.7767H77.183V32.7363Z" fill="#262628"/>
<path d="M85.2631 32.7373H81.2227V36.7777H85.2631V32.7373Z" fill="#262628"/>
<path d="M89.3031 32.7373H85.2627V36.7777H89.3031V32.7373Z" fill="#262628"/>
<path d="M93.3441 32.7373H89.3037V36.7777H93.3441V32.7373Z" fill="#262628"/>
<path d="M105.465 32.7373H101.425V36.7777H105.465V32.7373Z" fill="#262628"/>
<path d="M109.505 32.7363H105.465V36.7767H109.505V32.7363Z" fill="#262628"/>
<path d="M113.546 32.7363H109.506V36.7767H113.546V32.7363Z" fill="#262628"/>
<path d="M4.45544 36.7773H0.415039V40.8177H4.45544V36.7773Z" fill="#262628"/>
<path d="M8.49548 36.7773H4.45508V40.8177H8.49548V36.7773Z" fill="#262628"/>
<path d="M12.5355 36.7773H8.49512V40.8177H12.5355V36.7773Z" fill="#262628"/>
<path d="M24.6566 36.7773H20.6162V40.8177H24.6566V36.7773Z" fill="#262628"/>
<path d="M32.7377 36.7773H28.6973V40.8177H32.7377V36.7773Z" fill="#262628"/>
<path d="M40.8177 36.7773H36.7773V40.8177H40.8177V36.7773Z" fill="#262628"/>
<path d="M44.8588 36.7764H40.8184V40.8168H44.8588V36.7764Z" fill="#262628"/>
<path d="M52.939 36.7764H48.8986V40.8168H52.939V36.7764Z" fill="#262628"/>
<path d="M56.979 36.7764H52.9386V40.8168H56.979V36.7764Z" fill="#262628"/>
<path d="M69.1029 36.7764H65.0625V40.8168H69.1029V36.7764Z" fill="#262628"/>
<path d="M73.1429 36.7764H69.1025V40.8168H73.1429V36.7764Z" fill="#262628"/>
<path d="M81.223 36.7773H77.1826V40.8177H81.223V36.7773Z" fill="#262628"/>
<path d="M85.2631 36.7773H81.2227V40.8177H85.2631V36.7773Z" fill="#262628"/>
<path d="M89.3031 36.7773H85.2627V40.8177H89.3031V36.7773Z" fill="#262628"/>
<path d="M109.505 36.7773H105.465V40.8177H109.505V36.7773Z" fill="#262628"/>
<path d="M113.546 36.7773H109.506V40.8177H113.546V36.7773Z" fill="#262628"/>
<path d="M4.45544 40.8174H0.415039V44.8578H4.45544V40.8174Z" fill="#262628"/>
<path d="M12.5355 40.8174H8.49512V44.8578H12.5355V40.8174Z" fill="#262628"/>
<path d="M16.5756 40.8174H12.5352V44.8578H16.5756V40.8174Z" fill="#262628"/>
<path d="M24.6566 40.8174H20.6162V44.8578H24.6566V40.8174Z" fill="#262628"/>
<path d="M28.6978 40.8174H24.6573V44.8578H28.6978V40.8174Z" fill="#262628"/>
<path d="M32.7378 40.8174H28.6974V44.8578H32.7378V40.8174Z" fill="#262628"/>
<path d="M36.7787 40.8174H32.7383V44.8578H36.7787V40.8174Z" fill="#262628"/>
<path d="M44.8588 40.8164H40.8184V44.8568H44.8588V40.8164Z" fill="#262628"/>
<path d="M56.979 40.8164H52.9386V44.8568H56.979V40.8164Z" fill="#262628"/>
<path d="M61.0218 40.8164H56.9814V44.8568H61.0218V40.8164Z" fill="#262628"/>
<path d="M65.0619 40.8164H61.0215V44.8568H65.0619V40.8164Z" fill="#262628"/>
<path d="M69.1029 40.8164H65.0625V44.8568H69.1029V40.8164Z" fill="#262628"/>
<path d="M81.223 40.8174H77.1826V44.8578H81.223V40.8174Z" fill="#262628"/>
<path d="M89.3031 40.8174H85.2627V44.8578H89.3031V40.8174Z" fill="#262628"/>
<path d="M101.425 40.8174H97.3849V44.8578H101.425V40.8174Z" fill="#262628"/>
<path d="M16.5765 44.8574H12.5361V48.8978H16.5765V44.8574Z" fill="#262628"/>
<path d="M20.6166 44.8574H16.5762V48.8978H20.6166V44.8574Z" fill="#262628"/>
<path d="M24.6566 44.8574H20.6162V48.8978H24.6566V44.8574Z" fill="#262628"/>
<path d="M36.7787 44.8574H32.7383V48.8978H36.7787V44.8574Z" fill="#262628"/>
<path d="M44.8588 44.8594H40.8184V48.8998H44.8588V44.8594Z" fill="#262628"/>
<path d="M48.8978 44.8594H44.8574V48.8998H48.8978V44.8594Z" fill="#262628"/>
<path d="M56.979 44.8584H52.9386V48.8988H56.979V44.8584Z" fill="#262628"/>
<path d="M77.183 44.8574H73.1426V48.8978H77.183V44.8574Z" fill="#262628"/>
<path d="M101.425 44.8574H97.3846V48.8978H101.425V44.8574Z" fill="#262628"/>
<path d="M8.49548 48.8984H4.45508V52.9388H8.49548V48.8984Z" fill="#262628"/>
<path d="M12.5355 48.8984H8.49512V52.9388H12.5355V48.8984Z" fill="#262628"/>
<path d="M16.5756 48.8984H12.5352V52.9388H16.5756V48.8984Z" fill="#262628"/>
<path d="M20.6166 48.8984H16.5762V52.9388H20.6166V48.8984Z" fill="#262628"/>
<path d="M24.6566 48.8984H20.6162V52.9388H24.6566V48.8984Z" fill="#262628"/>
<path d="M28.6978 48.8984H24.6573V52.9388H28.6978V48.8984Z" fill="#262628"/>
<path d="M32.7378 48.8984H28.6974V52.9388H32.7378V48.8984Z" fill="#262628"/>
<path d="M40.8177 48.8984H36.7773V52.9388H40.8177V48.8984Z" fill="#262628"/>
<path d="M44.8588 48.8984H40.8184V52.9388H44.8588V48.8984Z" fill="#262628"/>
<path d="M52.939 48.8984H48.8986V52.9388H52.939V48.8984Z" fill="#262628"/>
<path d="M56.979 48.8984H52.9386V52.9388H56.979V48.8984Z" fill="#262628"/>
<path d="M65.0619 48.8984H61.0215V52.9388H65.0619V48.8984Z" fill="#262628"/>
<path d="M69.1029 48.8984H65.0625V52.9388H69.1029V48.8984Z" fill="#262628"/>
<path d="M77.183 48.8984H73.1426V52.9388H77.183V48.8984Z" fill="#262628"/>
<path d="M81.223 48.8984H77.1826V52.9388H81.223V48.8984Z" fill="#262628"/>
<path d="M101.425 48.8984H97.3849V52.9388H101.425V48.8984Z" fill="#262628"/>
<path d="M117.585 48.8984H113.545V52.9388H117.585V48.8984Z" fill="#262628"/>
<path d="M32.7378 52.9395H28.6974V56.9799H32.7378V52.9395Z" fill="#262628"/>
<path d="M36.7787 52.9395H32.7383V56.9799H36.7787V52.9395Z" fill="#262628"/>
<path d="M69.1029 52.9395H65.0625V56.9799H69.1029V52.9395Z" fill="#262628"/>
<path d="M73.1429 52.9395H69.1025V56.9799H73.1429V52.9395Z" fill="#262628"/>
<path d="M77.183 52.9395H73.1426V56.9799H77.183V52.9395Z" fill="#262628"/>
<path d="M85.2631 52.9395H81.2227V56.9799H85.2631V52.9395Z" fill="#262628"/>
<path d="M89.3031 52.9395H85.2627V56.9799H89.3031V52.9395Z" fill="#262628"/>
<path d="M97.3842 52.9395H93.3438V56.9799H97.3842V52.9395Z" fill="#262628"/>
<path d="M109.505 52.9395H105.465V56.9799H109.505V52.9395Z" fill="#262628"/>
<path d="M113.546 52.9395H109.506V56.9799H113.546V52.9395Z" fill="#262628"/>
<path d="M117.585 52.9395H113.545V56.9799H117.585V52.9395Z" fill="#262628"/>
<path d="M8.49548 56.9795H4.45508V61.0199H8.49548V56.9795Z" fill="#262628"/>
<path d="M24.6566 56.9795H20.6162V61.0199H24.6566V56.9795Z" fill="#262628"/>
<path d="M28.6978 56.9795H24.6573V61.0199H28.6978V56.9795Z" fill="#262628"/>
<path d="M36.7787 56.9795H32.7383V61.0199H36.7787V56.9795Z" fill="#262628"/>
<path d="M48.8978 56.9795H44.8574V61.0199H48.8978V56.9795Z" fill="#262628"/>
<path d="M73.1429 56.9795H69.1025V61.0199H73.1429V56.9795Z" fill="#262628"/>
<path d="M81.223 56.9795H77.1826V61.0199H81.223V56.9795Z" fill="#262628"/>
<path d="M85.2631 56.9795H81.2227V61.0199H85.2631V56.9795Z" fill="#262628"/>
<path d="M89.3031 56.9795H85.2627V61.0199H89.3031V56.9795Z" fill="#262628"/>
<path d="M101.425 56.9795H97.3849V61.0199H101.425V56.9795Z" fill="#262628"/>
<path d="M109.505 56.9795H105.465V61.0199H109.505V56.9795Z" fill="#262628"/>
<path d="M32.7378 61.0195H28.6974V65.0599H32.7378V61.0195Z" fill="#262628"/>
<path d="M40.8177 61.0195H36.7773V65.0599H40.8177V61.0195Z" fill="#262628"/>
<path d="M44.8588 61.0195H40.8184V65.0599H44.8588V61.0195Z" fill="#262628"/>
<path d="M48.8978 61.0195H44.8574V65.0599H48.8978V61.0195Z" fill="#262628"/>
<path d="M52.939 61.0195H48.8986V65.0599H52.939V61.0195Z" fill="#262628"/>
<path d="M65.0619 61.0195H61.0215V65.0599H65.0619V61.0195Z" fill="#262628"/>
<path d="M73.1429 61.0195H69.1025V65.0599H73.1429V61.0195Z" fill="#262628"/>
<path d="M77.183 61.0195H73.1426V65.0599H77.183V61.0195Z" fill="#262628"/>
<path d="M81.223 61.0195H77.1826V65.0599H81.223V61.0195Z" fill="#262628"/>
<path d="M93.3441 61.0195H89.3037V65.0599H93.3441V61.0195Z" fill="#262628"/>
<path d="M101.425 61.0195H97.3849V65.0599H101.425V61.0195Z" fill="#262628"/>
<path d="M109.505 61.0195H105.465V65.0599H109.505V61.0195Z" fill="#262628"/>
<path d="M117.585 61.0195H113.545V65.0599H117.585V61.0195Z" fill="#262628"/>
<path d="M28.6978 65.0596H24.6573V69.1H28.6978V65.0596Z" fill="#262628"/>
<path d="M36.7787 65.0605H32.7383V69.101H36.7787V65.0605Z" fill="#262628"/>
<path d="M44.8588 65.0605H40.8184V69.101H44.8588V65.0605Z" fill="#262628"/>
<path d="M52.939 65.0596H48.8986V69.1H52.939V65.0596Z" fill="#262628"/>
<path d="M69.1029 65.0596H65.0625V69.1H69.1029V65.0596Z" fill="#262628"/>
<path d="M85.2631 65.0605H81.2227V69.101H85.2631V65.0605Z" fill="#262628"/>
<path d="M89.3031 65.0605H85.2627V69.101H89.3031V65.0605Z" fill="#262628"/>
<path d="M93.3441 65.0605H89.3037V69.101H93.3441V65.0605Z" fill="#262628"/>
<path d="M101.425 65.0596H97.3849V69.1H101.425V65.0596Z" fill="#262628"/>
<path d="M109.505 65.0605H105.465V69.101H109.505V65.0605Z" fill="#262628"/>
<path d="M4.45544 69.1006H0.415039V73.141H4.45544V69.1006Z" fill="#262628"/>
<path d="M8.49548 69.1006H4.45508V73.141H8.49548V69.1006Z" fill="#262628"/>
<path d="M16.5756 69.1006H12.5352V73.141H16.5756V69.1006Z" fill="#262628"/>
<path d="M44.8588 69.0996H40.8184V73.14H44.8588V69.0996Z" fill="#262628"/>
<path d="M48.8978 69.0996H44.8574V73.14H48.8978V69.0996Z" fill="#262628"/>
<path d="M56.979 69.1006H52.9386V73.141H56.979V69.1006Z" fill="#262628"/>
<path d="M61.0218 69.0996H56.9814V73.14H61.0218V69.0996Z" fill="#262628"/>
<path d="M81.223 69.1006H77.1826V73.141H81.223V69.1006Z" fill="#262628"/>
<path d="M89.3031 69.1006H85.2627V73.141H89.3031V69.1006Z" fill="#262628"/>
<path d="M93.3441 69.1006H89.3037V73.141H93.3441V69.1006Z" fill="#262628"/>
<path d="M105.465 69.1006H101.425V73.141H105.465V69.1006Z" fill="#262628"/>
<path d="M109.505 69.0996H105.465V73.14H109.505V69.0996Z" fill="#262628"/>
<path d="M113.546 69.0996H109.506V73.14H113.546V69.0996Z" fill="#262628"/>
<path d="M117.585 69.0996H113.545V73.14H117.585V69.0996Z" fill="#262628"/>
<path d="M4.45544 73.1406H0.415039V77.181H4.45544V73.1406Z" fill="#262628"/>
<path d="M8.49548 73.1406H4.45508V77.181H8.49548V73.1406Z" fill="#262628"/>
<path d="M16.5756 73.1406H12.5352V77.181H16.5756V73.1406Z" fill="#262628"/>
<path d="M24.6566 73.1406H20.6162V77.181H24.6566V73.1406Z" fill="#262628"/>
<path d="M28.6976 73.1406H24.6572V77.181H28.6976V73.1406Z" fill="#262628"/>
<path d="M32.7377 73.1406H28.6973V77.181H32.7377V73.1406Z" fill="#262628"/>
<path d="M36.7787 73.1406H32.7383V77.181H36.7787V73.1406Z" fill="#262628"/>
<path d="M52.939 73.1406H48.8986V77.181H52.939V73.1406Z" fill="#262628"/>
<path d="M65.0619 73.1406H61.0215V77.181H65.0619V73.1406Z" fill="#262628"/>
<path d="M73.1429 73.1406H69.1025V77.181H73.1429V73.1406Z" fill="#262628"/>
<path d="M77.183 73.1406H73.1426V77.181H77.183V73.1406Z" fill="#262628"/>
<path d="M85.2631 73.1406H81.2227V77.181H85.2631V73.1406Z" fill="#262628"/>
<path d="M89.3031 73.1406H85.2627V77.181H89.3031V73.1406Z" fill="#262628"/>
<path d="M101.425 73.1406H97.3848V77.181H101.425V73.1406Z" fill="#262628"/>
<path d="M117.585 73.1406H113.545V77.181H117.585V73.1406Z" fill="#262628"/>
<path d="M4.45544 77.1807H0.415039V81.2211H4.45544V77.1807Z" fill="#262628"/>
<path d="M48.8978 77.1807H44.8574V81.2211H48.8978V77.1807Z" fill="#262628"/>
<path d="M52.939 77.1807H48.8986V81.2211H52.939V77.1807Z" fill="#262628"/>
<path d="M56.979 77.1807H52.9386V81.2211H56.979V77.1807Z" fill="#262628"/>
<path d="M73.1429 77.1807H69.1025V81.2211H73.1429V77.1807Z" fill="#262628"/>
<path d="M89.3031 77.1816H85.2627V81.222H89.3031V77.1816Z" fill="#262628"/>
<path d="M101.425 77.1816H97.3849V81.222H101.425V77.1816Z" fill="#262628"/>
<path d="M4.45544 81.2227H0.415039V85.2631H4.45544V81.2227Z" fill="#262628"/>
<path d="M12.5365 81.2227H8.49609V85.2631H12.5365V81.2227Z" fill="#262628"/>
<path d="M20.6166 81.2227H16.5762V85.2631H20.6166V81.2227Z" fill="#262628"/>
<path d="M28.6975 81.2227H24.6571V85.2631H28.6975V81.2227Z" fill="#262628"/>
<path d="M32.7375 81.2227H28.6971V85.2631H32.7375V81.2227Z" fill="#262628"/>
<path d="M40.8177 81.2227H36.7773V85.2631H40.8177V81.2227Z" fill="#262628"/>
<path d="M52.939 81.2227H48.8986V85.2631H52.939V81.2227Z" fill="#262628"/>
<path d="M61.0218 81.2227H56.9814V85.2631H61.0218V81.2227Z" fill="#262628"/>
<path d="M65.0619 81.2227H61.0215V85.2631H65.0619V81.2227Z" fill="#262628"/>
<path d="M77.183 81.2227H73.1426V85.2631H77.183V81.2227Z" fill="#262628"/>
<path d="M85.264 81.2227H81.2236V85.2631H85.264V81.2227Z" fill="#262628"/>
<path d="M89.3041 81.2227H85.2637V85.2631H89.3041V81.2227Z" fill="#262628"/>
<path d="M93.3441 81.2227H89.3037V85.2631H93.3441V81.2227Z" fill="#262628"/>
<path d="M97.3842 81.2227H93.3438V85.2631H97.3842V81.2227Z" fill="#262628"/>
<path d="M101.425 81.2227H97.3846V85.2631H101.425V81.2227Z" fill="#262628"/>
<path d="M109.505 81.2227H105.465V85.2631H109.505V81.2227Z" fill="#262628"/>
<path d="M113.546 81.2227H109.506V85.2631H113.546V81.2227Z" fill="#262628"/>
<path d="M117.585 81.2227H113.545V85.2631H117.585V81.2227Z" fill="#262628"/>
<path d="M36.7787 85.2627H32.7383V89.3031H36.7787V85.2627Z" fill="#262628"/>
<path d="M48.8978 85.2627H44.8574V89.3031H48.8978V85.2627Z" fill="#262628"/>
<path d="M61.0218 85.2627H56.9814V89.3031H61.0218V85.2627Z" fill="#262628"/>
<path d="M77.183 85.2627H73.1426V89.3031H77.183V85.2627Z" fill="#262628"/>
<path d="M81.223 85.2627H77.1826V89.3031H81.223V85.2627Z" fill="#262628"/>
<path d="M85.2631 85.2617H81.2227V89.3021H85.2631V85.2617Z" fill="#262628"/>
<path d="M101.425 85.2627H97.3849V89.3031H101.425V85.2627Z" fill="#262628"/>
<path d="M105.465 85.2627H101.425V89.3031H105.465V85.2627Z" fill="#262628"/>
<path d="M40.8177 89.3027H36.7773V93.3431H40.8177V89.3027Z" fill="#262628"/>
<path d="M48.8978 89.3027H44.8574V93.3431H48.8978V89.3027Z" fill="#262628"/>
<path d="M77.183 89.3027H73.1426V93.3431H77.183V89.3027Z" fill="#262628"/>
<path d="M85.2631 89.3027H81.2227V93.3431H85.2631V89.3027Z" fill="#262628"/>
<path d="M93.3441 89.3027H89.3037V93.3431H93.3441V89.3027Z" fill="#262628"/>
<path d="M101.425 89.3027H97.3849V93.3431H101.425V89.3027Z" fill="#262628"/>
<path d="M105.465 89.3027H101.425V93.3431H105.465V89.3027Z" fill="#262628"/>
<path d="M109.505 89.3027H105.465V93.3431H109.505V89.3027Z" fill="#262628"/>
<path d="M40.8177 93.3428H36.7773V97.3832H40.8177V93.3428Z" fill="#262628"/>
<path d="M44.8588 93.3438H40.8184V97.3842H44.8588V93.3438Z" fill="#262628"/>
<path d="M48.8978 93.3438H44.8574V97.3842H48.8978V93.3438Z" fill="#262628"/>
<path d="M52.939 93.3438H48.8986V97.3842H52.939V93.3438Z" fill="#262628"/>
<path d="M61.0218 93.3438H56.9814V97.3842H61.0218V93.3438Z" fill="#262628"/>
<path d="M65.0619 93.3438H61.0215V97.3842H65.0619V93.3438Z" fill="#262628"/>
<path d="M69.1029 93.3438H65.0625V97.3842H69.1029V93.3438Z" fill="#262628"/>
<path d="M73.1429 93.3438H69.1025V97.3842H73.1429V93.3438Z" fill="#262628"/>
<path d="M77.183 93.3428H73.1426V97.3832H77.183V93.3428Z" fill="#262628"/>
<path d="M81.223 93.3428H77.1826V97.3832H81.223V93.3428Z" fill="#262628"/>
<path d="M85.2631 93.3428H81.2227V97.3832H85.2631V93.3428Z" fill="#262628"/>
<path d="M101.425 93.3428H97.3849V97.3832H101.425V93.3428Z" fill="#262628"/>
<path d="M105.465 93.3428H101.425V97.3832H105.465V93.3428Z" fill="#262628"/>
<path d="M109.505 93.3428H105.465V97.3832H109.505V93.3428Z" fill="#262628"/>
<path d="M117.585 93.3438H113.545V97.3842H117.585V93.3438Z" fill="#262628"/>
<path d="M44.8588 97.3828H40.8184V101.423H44.8588V97.3828Z" fill="#262628"/>
<path d="M56.979 97.3838H52.9386V101.424H56.979V97.3838Z" fill="#262628"/>
<path d="M61.0218 97.3828H56.9814V101.423H61.0218V97.3828Z" fill="#262628"/>
<path d="M69.1029 97.3838H65.0625V101.424H69.1029V97.3838Z" fill="#262628"/>
<path d="M73.1429 97.3838H69.1025V101.424H73.1429V97.3838Z" fill="#262628"/>
<path d="M85.2631 97.3828H81.2227V101.423H85.2631V97.3828Z" fill="#262628"/>
<path d="M89.3031 97.3828H85.2627V101.423H89.3031V97.3828Z" fill="#262628"/>
<path d="M93.3441 97.3828H89.3037V101.423H93.3441V97.3828Z" fill="#262628"/>
<path d="M97.3842 97.3828H93.3438V101.423H97.3842V97.3828Z" fill="#262628"/>
<path d="M101.425 97.3828H97.3849V101.423H101.425V97.3828Z" fill="#262628"/>
<path d="M109.505 97.3828H105.465V101.423H109.505V97.3828Z" fill="#262628"/>
<path d="M48.8978 101.424H44.8574V105.464H48.8978V101.424Z" fill="#262628"/>
<path d="M52.939 101.424H48.8986V105.464H52.939V101.424Z" fill="#262628"/>
<path d="M61.0218 101.424H56.9814V105.464H61.0218V101.424Z" fill="#262628"/>
<path d="M85.2631 101.424H81.2227V105.464H85.2631V101.424Z" fill="#262628"/>
<path d="M89.3031 101.424H85.2627V105.464H89.3031V101.424Z" fill="#262628"/>
<path d="M93.3441 101.424H89.3037V105.464H93.3441V101.424Z" fill="#262628"/>
<path d="M97.3842 101.424H93.3438V105.464H97.3842V101.424Z" fill="#262628"/>
<path d="M101.425 101.424H97.3849V105.464H101.425V101.424Z" fill="#262628"/>
<path d="M113.546 101.424H109.506V105.464H113.546V101.424Z" fill="#262628"/>
<path d="M61.0218 105.464H56.9814V109.504H61.0218V105.464Z" fill="#262628"/>
<path d="M65.0619 105.464H61.0215V109.504H65.0619V105.464Z" fill="#262628"/>
<path d="M77.183 105.464H73.1426V109.504H77.183V105.464Z" fill="#262628"/>
<path d="M97.3842 105.465H93.3438V109.505H97.3842V105.465Z" fill="#262628"/>
<path d="M113.546 105.464H109.506V109.504H113.546V105.464Z" fill="#262628"/>
<path d="M40.8177 109.504H36.7773V113.544H40.8177V109.504Z" fill="#262628"/>
<path d="M48.8978 109.504H44.8574V113.544H48.8978V109.504Z" fill="#262628"/>
<path d="M56.979 109.504H52.9386V113.544H56.979V109.504Z" fill="#262628"/>
<path d="M61.0218 109.504H56.9814V113.544H61.0218V109.504Z" fill="#262628"/>
<path d="M73.1429 109.504H69.1025V113.544H73.1429V109.504Z" fill="#262628"/>
<path d="M81.223 109.504H77.1826V113.544H81.223V109.504Z" fill="#262628"/>
<path d="M93.3441 109.505H89.3037V113.545H93.3441V109.505Z" fill="#262628"/>
<path d="M101.425 109.505H97.3848V113.545H101.425V109.505Z" fill="#262628"/>
<path d="M117.585 109.504H113.545V113.544H117.585V109.504Z" fill="#262628"/>
<path d="M36.7787 113.545H32.7383V117.585H36.7787V113.545Z" fill="#262628"/>
<path d="M44.8588 113.544H40.8184V117.584H44.8588V113.544Z" fill="#262628"/>
<path d="M52.939 113.544H48.8986V117.584H52.939V113.544Z" fill="#262628"/>
<path d="M56.979 113.544H52.9386V117.584H56.979V113.544Z" fill="#262628"/>
<path d="M61.0218 113.544H56.9814V117.584H61.0218V113.544Z" fill="#262628"/>
<path d="M65.0619 113.544H61.0215V117.584H65.0619V113.544Z" fill="#262628"/>
<path d="M77.183 113.545H73.1426V117.585H77.183V113.545Z" fill="#262628"/>
<path d="M85.2631 113.545H81.2227V117.585H85.2631V113.545Z" fill="#262628"/>
<path d="M89.3031 113.545H85.2627V117.585H89.3031V113.545Z" fill="#262628"/>
<path d="M97.3842 113.545H93.3438V117.585H97.3842V113.545Z" fill="#262628"/>
<path d="M101.425 113.545H97.3848V117.585H101.425V113.545Z" fill="#262628"/>
<path d="M105.465 113.545H101.425V117.585H105.465V113.545Z" fill="#262628"/>
<path d="M109.505 113.545H105.465V117.585H109.505V113.545Z" fill="#262628"/>
<path d="M24.4554 0.413086H4.65746H4.41504C2.2059 0.413086 0.415039 2.20395 0.415039 4.41309V4.65551V24.4535V24.6959C0.415039 26.9051 2.2059 28.6959 4.41504 28.6959H4.65746H24.4554H24.6979C26.907 28.6959 28.6979 26.9051 28.6979 24.6959V24.4535V4.65551V4.41309C28.6979 2.20395 26.907 0.413086 24.6979 0.413086H24.4554ZM24.4554 20.4535C24.4554 22.6626 22.6646 24.4535 20.4554 24.4535H8.65746C6.44832 24.4535 4.65746 22.6626 4.65746 20.4535V8.65551C4.65746 6.44637 6.44832 4.65551 8.65746 4.65551H20.4554C22.6646 4.65551 24.4554 6.44637 24.4554 8.65551V20.4535Z" fill="#262628"/>
<path d="M113.344 0.414062H93.5461H93.3037C91.0946 0.414062 89.3037 2.20492 89.3037 4.41406V4.65649V24.4545V24.6969C89.3037 26.906 91.0946 28.6969 93.3037 28.6969H93.5461H113.344H113.587C115.796 28.6969 117.587 26.906 117.587 24.6969V24.4545V4.65649V4.41406C117.587 2.20492 115.796 0.414062 113.587 0.414062H113.344ZM113.344 20.4545C113.344 22.6636 111.553 24.4545 109.344 24.4545H97.5461C95.337 24.4545 93.5461 22.6636 93.5461 20.4545V8.65649C93.5461 6.44735 95.337 4.65649 97.5461 4.65649H109.344C111.553 4.65649 113.344 6.44735 113.344 8.65649V20.4545Z" fill="#262628"/>
<path d="M24.4554 89.3027H4.65746H4.41504C2.2059 89.3027 0.415039 91.0936 0.415039 93.3027V93.5452V113.343V113.586C0.415039 115.795 2.2059 117.586 4.41504 117.586H4.65746H24.4554H24.6979C26.907 117.586 28.6979 115.795 28.6979 113.586V113.343V93.5452V93.3027C28.6979 91.0936 26.907 89.3027 24.6979 89.3027H24.4554ZM24.4554 109.343C24.4554 111.552 22.6646 113.343 20.4554 113.343H8.65746C6.44832 113.343 4.65746 111.552 4.65746 109.343V97.5452C4.65746 95.336 6.44832 93.5452 8.65746 93.5452H20.4554C22.6646 93.5452 24.4554 95.336 24.4554 97.5452V109.343Z" fill="#262628"/>
<path d="M20.6163 8.49414H8.49512V20.6154H20.6163V8.49414Z" fill="#262628"/>
<path d="M109.506 8.49512H97.3849V20.6163H109.506V8.49512Z" fill="#262628"/>
<path d="M20.6163 97.3828H8.49512V109.504H20.6163V97.3828Z" fill="#262628"/>
</svg>
