<svg width="68" height="68" viewBox="0 0 68 68" fill="none" xmlns="http://www.w3.org/2000/svg">
<mask id="mask0_222_15671" style="mask-type:alpha" maskUnits="userSpaceOnUse" x="0" y="0" width="68" height="68">
<rect width="68" height="68" fill="#D9D9D9"/>
</mask>
<g mask="url(#mask0_222_15671)">
<path d="M40.0144 46.0674L42.8044 48.3308C44.0322 49.3268 44.1239 51.168 43.0013 52.2811V52.2811C42.0788 53.1958 40.6301 53.3093 39.5763 52.5495L36.313 50.1962" stroke="#1D3A44" stroke-width="2" stroke-linecap="round" stroke-linejoin="round"/>
<path d="M44.1783 42.3965L47.0851 44.5581C48.4772 45.5934 48.6214 47.625 47.3895 48.8466V48.8466C46.3547 49.8726 44.7106 49.9471 43.5872 49.0189L40.0142 46.0666" stroke="#1D3A44" stroke-width="2" stroke-linecap="round" stroke-linejoin="round"/>
<path d="M44.1777 35.5156L51.8602 41.0555C53.194 42.0174 53.3999 43.9232 52.3022 45.1477V45.1477C51.3636 46.1946 49.7893 46.3714 48.6419 45.5588L44.1777 42.3971" stroke="#1D3A44" stroke-width="2" stroke-linecap="round" stroke-linejoin="round"/>
<path d="M16.417 23.5879C17.1881 24.0467 19.008 24.9642 20.1185 24.9642C21.5065 24.9642 25.6706 24.0467 27.5214 24.9642C29.002 25.6982 29.6806 25.8817 29.8348 25.8817" stroke="#1D3A44" stroke-width="2" stroke-linecap="round" stroke-linejoin="round"/>
<path d="M37.702 24.0465C36.6224 23.5878 34.0931 22.8537 32.6125 23.5878C30.7618 24.5053 25.6723 29.5517 24.7469 30.0104C23.8216 30.4692 21.0455 31.8455 21.5081 32.763C21.9708 33.6805 23.8224 35.9743 26.5985 35.0568C29.3746 34.1393 31.6864 30.9279 32.6125 31.3867C33.5387 31.8455 35.3894 34.1393 38.6282 35.0568C41.2192 35.7908 43.4093 35.6685 44.1804 35.5156" stroke="#1D3A44" stroke-width="2" stroke-linecap="round" stroke-linejoin="round"/>
<path d="M41.8652 24.5054C42.6364 24.8113 44.6413 25.3312 46.4921 24.9642C48.3428 24.5972 50.3477 23.8937 51.1189 23.5879" stroke="#1D3A44" stroke-width="2" stroke-linecap="round" stroke-linejoin="round"/>
<path d="M57.1341 38.2676L52.5073 41.4789" stroke="#1D3A44" stroke-width="2" stroke-linecap="round" stroke-linejoin="round"/>
<path d="M36.3108 50.1953L37.5204 51.0948C38.8318 52.07 38.9676 53.9837 37.8071 55.1344V55.1344C36.9297 56.0044 35.5701 56.1589 34.5198 55.5081L32.6094 54.3242" stroke="#1D3A44" stroke-width="2" stroke-linecap="round" stroke-linejoin="round"/>
<path d="M10.4009 38.7266L15.9531 42.3967" stroke="#1D3A44" stroke-width="2" stroke-linecap="round" stroke-linejoin="round"/>
<path d="M60.8353 26.3402L58.0592 19L50.6562 21.7526L58.0592 39.6443L64.9994 36.8917L62.2233 30.0103" stroke="#B71923" stroke-width="2" stroke-linecap="round" stroke-linejoin="round"/>
<path d="M16.4178 22.2116L9.94024 19.459L3 36.892L9.47756 39.6445L16.4178 22.2116Z" stroke="#B71923" stroke-width="2" stroke-linecap="round"/>
<rect width="4.31523" height="8.49056" rx="2.15762" transform="matrix(0.771774 0.635897 -0.642327 0.766431 19.9312 38.4375)" stroke="#1D3A44" stroke-width="2" stroke-linecap="round" stroke-linejoin="round"/>
<rect width="4.31523" height="8.49056" rx="2.15762" transform="matrix(0.771774 0.635897 -0.642327 0.766431 23.7212 41.4795)" stroke="#1D3A44" stroke-width="2" stroke-linecap="round" stroke-linejoin="round"/>
<rect width="4.31523" height="8.49056" rx="2.15762" transform="matrix(0.771774 0.635897 -0.642327 0.766431 27.4224 45.1494)" stroke="#1D3A44" stroke-width="2" stroke-linecap="round" stroke-linejoin="round"/>
<rect width="4.31523" height="8.49056" rx="2.15762" transform="matrix(0.771774 0.635897 -0.642327 0.766431 31.126 47.9023)" stroke="#1D3A44" stroke-width="2" stroke-linecap="round" stroke-linejoin="round"/>
</g>
</svg>
