<svg width="68" height="68" viewBox="0 0 68 68" fill="none" xmlns="http://www.w3.org/2000/svg">
<path d="M8 17C8 16.4477 8.44772 16 9 16H59C59.5523 16 60 16.4477 60 17V51C60 51.5523 59.5523 52 59 52H9C8.44772 52 8 51.5523 8 51V17Z" stroke="#1D3A44" stroke-width="2"/>
<path d="M49 35.5C49.5523 35.5 50 35.0523 50 34.5C50 33.9477 49.5523 33.5 49 33.5V35.5ZM43.7062 34.97L44.5542 35.5L43.7062 34.97ZM38.3705 40.3693L37.4115 40.6527L38.3705 40.3693ZM40.1775 40.616L39.3295 40.086L40.1775 40.616ZM26.7597 33.8939L25.8406 33.5L26.7597 33.8939ZM17.5 35.5H25.8406V33.5H17.5V35.5ZM27.6789 34.2878L32.3267 23.4429L30.4885 22.655L25.8406 33.5L27.6789 34.2878ZM32.3267 23.4429L37.4115 40.6527L39.3295 40.086L34.2448 22.8762L32.3267 23.4429ZM41.0255 41.146L44.5542 35.5L42.8583 34.44L39.3295 40.086L41.0255 41.146ZM44.5542 35.5H49V33.5H44.5542V35.5ZM44.5542 35.5V33.5C43.8647 33.5 43.2237 33.8552 42.8583 34.44L44.5542 35.5ZM37.4115 40.6527C37.9 42.3061 40.1117 42.608 41.0255 41.146L39.3295 40.086L39.3295 40.086L37.4115 40.6527ZM32.3267 23.4429V23.4429L34.2448 22.8762C33.714 21.0798 31.2263 20.9333 30.4885 22.655L32.3267 23.4429ZM25.8406 35.5C26.6407 35.5 27.3637 35.0232 27.6789 34.2878L25.8406 33.5V35.5Z" fill="#B71923"/>
<path d="M8 46L60 46" stroke="#1D3A44" stroke-width="2"/>
<path d="M39 58V53C39 52.4477 38.5523 52 38 52H30C29.4477 52 29 52.4477 29 53V58" stroke="#1D3A44" stroke-width="2" stroke-linecap="round"/>
</svg>
